<?xml version="1.0" encoding="UTF-8"?><svg id="Layer_1" xmlns="http://www.w3.org/2000/svg" viewBox="0 0 1366 768"><ellipse cx="681.68" cy="323.78" rx="217.59" ry="215.5" fill="#fff" stroke-width="0"/><polygon points="899.27 313.95 899.27 679.03 893.84 679.03 893.84 710.23 891.68 710.23 891.68 663.35 886.25 663.35 886.25 710.23 883.88 710.23 883.88 672.51 878.45 672.51 878.45 710.23 875.88 710.23 875.88 688.93 870.45 688.93 870.45 710.23 868.07 710.23 868.07 672.51 862.64 672.51 862.64 710.23 860.04 710.23 860.04 650.65 854.61 650.65 854.61 710.23 852.24 710.23 852.24 640.19 846.8 640.19 846.8 710.23 844.65 710.23 844.65 663.35 839.22 663.35 839.22 710.23 836.85 710.23 836.85 675.21 831.41 675.21 831.41 710.23 828.81 710.23 828.81 693.41 823.38 693.41 823.38 710.23 821.01 710.23 821.01 687.89 815.58 687.89 815.58 710.23 813.4 710.23 813.4 691.37 807.97 691.37 807.97 710.23 805.59 710.23 805.59 681.13 800.16 681.13 800.16 710.23 797.57 710.23 797.57 663.35 792.14 663.35 792.14 710.23 789.77 710.23 789.77 667.62 784.34 667.62 784.34 710.23 781.74 710.23 781.74 652.03 776.3 652.03 776.3 710.23 773.93 710.23 773.93 640.19 768.5 640.19 768.5 710.23 766.35 710.23 766.35 602.82 760.91 602.82 760.91 710.23 758.54 710.23 758.54 625 753.11 625 753.11 710.23 750.51 710.23 750.51 654.22 745.08 654.22 745.08 710.23 742.7 710.23 742.7 663.35 737.27 663.35 737.27 710.23 735.1 710.23 735.1 676.6 729.66 676.6 729.66 710.23 727.29 710.23 727.29 670.02 721.86 670.02 721.86 710.23 719.47 710.23 719.47 663.35 714.04 663.35 714.04 710.23 711.67 710.23 711.67 683.98 706.23 683.98 706.23 710.23 703.63 710.23 703.63 676.6 698.2 676.6 698.2 710.23 695.83 710.23 695.83 687.89 690.4 687.89 690.4 710.23 688.25 710.23 688.25 672.51 682.82 672.51 682.82 710.23 680.44 710.23 680.44 667.62 675.01 667.62 675.01 710.23 672.41 710.23 672.41 683.98 666.98 683.98 666.98 710.23 664.61 710.23 664.61 692.72 659.18 692.72 659.18 710.23 656.99 710.23 656.99 687.89 651.56 687.89 651.56 710.23 649.19 710.23 649.19 675.21 643.76 675.21 643.76 710.23 641.38 710.23 641.38 680.42 635.95 680.42 635.95 710.23 633.63 710.23 633.63 671.38 628.2 671.38 628.2 710.23 625.83 710.23 625.83 683.98 620.4 683.98 620.4 710.23 617.8 710.23 617.8 697.12 612.37 697.12 612.37 710.23 609.99 710.23 609.99 687.89 604.56 687.89 604.56 710.23 602.41 710.23 602.41 676.87 596.98 676.87 596.98 710.23 594.61 710.23 594.61 650.61 589.18 650.61 589.18 710.23 586.58 710.23 586.58 667.62 581.14 667.62 581.14 710.23 578.77 710.23 578.77 681.49 573.34 681.49 573.34 710.23 571.16 710.23 571.16 694.41 565.73 694.41 565.73 710.23 563.35 710.23 563.35 678.59 557.92 678.59 557.92 710.23 555.54 710.23 555.54 688.93 550.11 688.93 550.11 710.23 547.61 710.23 547.61 663.35 542.18 663.35 542.18 710.23 539.81 710.23 539.81 681.49 534.38 681.49 534.38 710.23 531.77 710.23 531.77 657.74 526.34 657.74 526.34 710.23 523.97 710.23 523.97 620.11 518.54 620.11 518.54 710.23 516.39 710.23 516.39 652.76 510.95 652.76 510.95 710.23 508.58 710.23 508.58 667.62 503.15 667.62 503.15 710.23 500.55 710.23 500.55 677.22 495.12 677.22 495.12 710.23 492.75 710.23 492.75 684.78 487.31 684.78 487.31 710.23 485.13 710.23 485.13 671.16 479.7 671.16 479.7 710.23 477.33 710.23 477.33 644.22 471.9 644.22 471.9 710.23 469.51 710.23 469.51 669.64 464.08 669.64 464.08 313.95 899.27 313.95" fill="#fff" stroke-width="0"/><path d="m945.18,741.09H420.96v-404.74c.58-153.13,124.54-276.25,268.93-272.41,139.42,3.71,254.83,124.63,255.29,272.41v404.74Z" fill="none" stroke="#fff" stroke-miterlimit="10"/><path d="m956.86,756.13H409.28v-422.71c.6-159.93,130.09-288.52,280.91-284.51,145.63,3.87,266.18,130.17,266.66,284.51v422.71Z" fill="none" stroke="#fff" stroke-miterlimit="10"/><path d="m595.34,223.19c4.31-2.77,12.33-6.97,22.44-6.99,1.99,0,6.52-.02,11.96,1.65,4.78,1.48,5.74,2.85,11.9,4.78,3.9,1.22,6.8,2.12,10.48,1.91,4.29-.24,7.29-1.8,9.41-2.81,2.79-1.33,17.51-8.32,31.68-6.67,4.67.54,9.17,2.02,11.88,2.87,7.95,2.57,8.94,4.29,13.7,4.63,4.16.32,7.37-.69,13.35-2.53,5.89-1.82,7.29-3.15,12.3-3.94,1.31-.21,4.8-.73,8.85-.28,10.25,1.14,17.86,7.82,17.49,8.51-.3.56-5.77-3.3-15.39-4.29-1.97-.19-5.98-.58-11.04.28-5.44.92-6.43,2.34-15.11,4.84-4.84,1.41-7.29,2.1-9.84,2.1-4.46,0-6.11-1.41-13.35-3.94-7.14-2.49-11.19-3.88-16.74-4.12-4.95-.21-9.3.58-11.96,1.22-.94.24-1.84.49-2.12.58-2.32.66-5.44,1.71-9.02,3.37-2.47,1.14-2.64,1.39-5.14,2.47-1.22.51-2.96,1.22-5.08,1.61-2.23.41-3.97.36-4.95.34-11.04-.28-17.62-7.42-30.38-8.21-1.84-.11-6.02-.24-11,1.2-4.18,1.22-7.89,3.24-7.72,3.75.17.49,5.49-2.1,13.25-1.89,3.22.09,5.77.62,6.88.9,2.21.51,3.79,1.14,7.14,2.55,8,3.37,7.59,3.52,10.59,4.61,3.58,1.29,6.82,2.47,11.08,2.57,3.84.09,6.65-.71,9.86-1.67,7.82-2.34,8.38-4.54,16.01-7.01,3.19-1.03,6.86-2.19,11.73-2.14,5.32.04,9.41,1.48,12.73,2.66,6.62,2.32,7.57,3.56,12.99,5.14,4.2,1.22,7.67.54,8.53.47,5.89-.47,7.61-2.27,15.39-4.63,5.25-1.59,9.5-2.87,14.79-2.7,5.59.17,10.05,1.91,12.88,3.28" fill="none" stroke="#6479ec" stroke-linecap="round" stroke-miterlimit="10" stroke-width=".6"/><path d="m619,211.36c10.59-27.18,37.02-45.04,66.05-44.69,28.53.34,54.19,18.2,64.5,44.97" fill="none" stroke="#6479ec" stroke-linecap="round" stroke-miterlimit="10" stroke-width=".75"/><text transform="translate(390.52 754.73) rotate(-90)" fill="#fff" font-family="FeneonDense-144, &apos;Feneon Dense&apos;" font-size="18"><tspan x="0" y="0">ROCK</tspan></text><text transform="translate(390.52 682.93) rotate(-90)" fill="#fff" font-family="FeneonDense-144, &apos;Feneon Dense&apos;" font-size="18"><tspan x="0" y="0" xml:space="preserve"> SOUL</tspan></text><text transform="translate(391.32 544.77) rotate(-90)" fill="#fff" font-family="FeneonDense-144, &apos;Feneon Dense&apos;" font-size="18"><tspan x="0" y="0">ELECTRONIC</tspan></text><text transform="translate(390.52 395.03) rotate(-90)" fill="#fff" font-family="FeneonDense-144, &apos;Feneon Dense&apos;" font-size="18"><tspan x="0" y="0">POP</tspan></text><text transform="translate(976.38 639.15) rotate(90)" fill="#fff" font-family="FeneonDense-144, &apos;Feneon Dense&apos;" font-size="18"><tspan x="0" y="0">CLASSICAL</tspan></text><text transform="translate(976.38 569.5) rotate(90)" fill="#fff" font-family="FeneonDense-144, &apos;Feneon Dense&apos;" font-size="18"><tspan x="0" y="0" letter-spacing="-.03em">J</tspan><tspan x="9.28" y="0">AZZ</tspan></text><text transform="translate(976.38 474.88) rotate(90)" fill="#fff" font-family="FeneonDense-144, &apos;Feneon Dense&apos;" font-size="18"><tspan x="0" y="0">HIP HOP</tspan></text><text transform="translate(975.81 367.9) rotate(90)" fill="#fff" font-family="FeneonDense-144, &apos;Feneon Dense&apos;" font-size="18"><tspan x="0" y="0">REGGAE</tspan></text><text transform="translate(390.52 339.05) rotate(-90)" fill="#fff" font-family="FeneonDense-144, &apos;Feneon Dense&apos;" font-size="18"><tspan x="0" y="0">FUNK</tspan></text><text transform="translate(975.7 284.78) rotate(90)" fill="#fff" font-family="FeneonDense-144, &apos;Feneon Dense&apos;" font-size="18"><tspan x="0" y="0">ME</tspan><tspan x="30.05" y="0" letter-spacing="-.05em">T</tspan><tspan x="42.13" y="0">AL</tspan></text><text transform="translate(390.52 604.02) rotate(-90)" fill="#fff" font-family="FeneonDense-144, &apos;Feneon Dense&apos;" font-size="18"><tspan x="0" y="0">RAP</tspan></text><g opacity=".92"><path d="m558.58,132.91c-.08-.14-.08-.26.04-.34,1.21-1.08,1.23-3.11-.02-5.2-2.22-3.72-4.44-7.45-6.66-11.17-.07-.12-.05-.29.07-.36.12-.07.29-.02.36.1,2.21,3.73,4.42,7.45,6.64,11.18,1.03,1.73,1.26,3.46.73,4.71-.03.05-.07.1-.1.16,0,0,.02.01.03.02.05-.04.09-.08.14-.12.88-.53,1.76-1.05,2.64-1.57.06-.02.12-.04.17-.06,0-.01,0-.02,0-.03-.07,0-.13.01-.2.02-.61-.02-1.19-.2-1.64-.53-.03-.02-.04-.05-.07-.09-.07-.12-.05-.29.05-.35.09-.05.2-.02.26.03.63.49,1.62.6,2.56.29.14-.04.25,0,.31.15.08.17.06.28-.07.36-1.64.95-3.28,1.92-4.9,2.92-.12.07-.23.05-.35-.11Zm9.38-5.37c-5.6-4.75-11.38-9.34-17.34-13.77-1.47-1.1-3.13-.87-3.64-.55-.12.07-.27.03-.34-.09-.08-.12-.05-.29.07-.36.59-.36,2.55-.64,4.19.58,5.84,4.36,11.5,8.88,16.99,13.54.04.06.08.11.13.17,0,0,.02,0,.02-.01-.03-.07-.05-.13-.08-.2-.04-.31-.07-.62-.11-.93-5.86-5-11.92-9.83-18.17-14.49-.03-.02-.05-.06-.07-.09-.07-.12-.05-.29.07-.36.39-.23.78-.46,1.17-.69.13-.08.25-.07.36.03,5.54,4.2,10.92,8.55,16.15,13.02.04.06.08.11.12.17,0,0,.02,0,.02-.01-.03-.07-.05-.13-.08-.2-.06-.32-.12-.64-.18-.96-4.92-4.22-9.98-8.33-15.18-12.31-.03-.02-.05-.06-.07-.09-.07-.13-.04-.29.08-.36.39-.23.78-.45,1.17-.67.13-.08.25-.07.36.04,4.51,3.53,8.92,7.15,13.22,10.86-.93-5.52-1.76-11.08-2.47-16.67-.01-.12.03-.23.13-.28.12-.06.29,0,.36.13,3.14,6.19,6.27,12.38,9.41,18.57.37.73.3,1.56-.13,2.27-.04.05-.08.1-.12.15,0,0,.02.01.03.02.05-.04.1-.07.15-.11.54-.28,1.08-.56,1.62-.84-3.42-6.8-6.84-13.61-10.26-20.41-.08-.16-.05-.28.1-.35.38-.19.76-.38,1.15-.57.15-.07.28-.03.35.13,3.37,6.83,6.75,13.66,10.12,20.48.21-.1.41-.2.62-.31-3.35-6.84-6.71-13.68-10.06-20.51-.08-.16-.05-.28.1-.35,1.18-.58,2.36-1.14,3.54-1.7.14-.06.26-.02.35.14.08.16.05.28-.1.37-1.23.81-1.76,1.87-1.37,2.69,2.71,5.61,5.41,11.23,8.12,16.84.47.97,1.53,1.35,2.7.98.1-.05.24.01.3.14.06.13,0,.28-.1.33,0,0-.02,0-.02.01-1.37.45-2.69-.04-3.29-1.27-2.72-5.61-5.43-11.21-8.15-16.82-.32-.67-.22-1.43.27-2.13.05-.05.1-.11.14-.16,0,0-.02-.01-.03-.02-.05.04-.11.08-.16.11-.58.28-1.15.57-1.73.85,3.34,6.85,6.69,13.7,10.03,20.55.08.16.04.27-.1.33-.34.17-.69.34-1.03.51-.14.07-.23.03-.31-.13-3.39-6.83-6.78-13.65-10.17-20.48-.23.12-.46.23-.69.35,3.41,6.82,6.82,13.63,10.23,20.45.08.16.04.27-.09.34-1.07.54-2.14,1.08-3.2,1.64-.12.06-.23.03-.33-.12-.08-.16-.06-.27.06-.36,1.1-.81,1.54-1.91,1.08-2.82-2.91-5.73-5.82-11.46-8.73-17.18-.03-.07-.06-.14-.09-.21,0,0,0,0-.01,0,.01.07.03.14.04.21.7,5.37,1.5,10.7,2.4,16,.04.23-.09.31-.28.15-4.47-3.87-9.05-7.64-13.76-11.31-.24.14-.49.28-.73.42,5.09,3.93,10.05,7.97,14.88,12.13.09.08.16.17.18.31.1.62.2,1.25.3,1.87.05.23-.08.32-.26.16-5.41-4.64-11-9.15-16.75-13.5-.24.14-.49.28-.73.43,6.15,4.6,12.11,9.38,17.87,14.31.11.09.16.17.17.31.05.47.11.93.16,1.4.03.2-.07.26-.19.32-.11.06-.21.06-.33-.04Z" fill="#fff" stroke-width="0"/><path d="m582.58,111.79c-1.81-4.05-3.61-8.09-5.42-12.14-.41-.93-1.64-1.31-3.04-.83-.16.05-.28,0-.34-.16-.06-.17-.02-.29.12-.36,1.19-.55,2.39-1.08,3.58-1.61.15-.07.27-.01.35.15l6.13,13.99c1.22,2.76,3.85,4.09,6.86,3.71.06,0,.12-.02.19-.02,0,0,0-.01,0-.02-.06,0-.13-.02-.19-.03-2.96-.55-5.31-1.91-6.09-3.7-2.07-4.75-4.13-9.5-6.2-14.24-.07-.16-.04-.28.11-.35.38-.17.77-.33,1.15-.5.15-.07.27-.01.34.15,2,4.69,4.01,9.39,6.01,14.08.36.84,1.05,1.53,1.86,1.89.06.03.12.07.18.1,0,0,0-.01,0-.02-.05-.05-.1-.1-.15-.15-.49-.62-.96-1.48-1.35-2.4-1.65-3.89-3.3-7.79-4.94-11.68-.54-1.26.02-2.67,1.43-3.37.2-.1.32.02.36.13.06.13,0,.26-.11.32-1.16.67-1.65,1.73-1.23,2.73,1.64,3.9,3.28,7.79,4.92,11.69.49,1.16,1.16,2.2,1.68,2.76.16.16.13.28.09.4-.05.14-.14.22-.27.18-1.21-.28-2.38-1.16-2.9-2.39-1.98-4.61-3.96-9.22-5.94-13.83-.23.1-.46.2-.69.3,2.02,4.67,4.04,9.35,6.07,14.02.8,1.83,3.57,3.27,6.95,3.58.13.02.26.16.27.29,0,.17-.03.26-.18.3-3.71,1.08-7.17-.35-8.68-3.74-2.02-4.58-4.04-9.16-6.06-13.74-.61.26-1.21.53-1.82.79-.06.02-.13.03-.19.05,0,.01,0,.02,0,.04.07,0,.14,0,.21,0,.89.09,1.6.55,1.94,1.3,1.8,4.05,3.6,8.1,5.4,12.15,1.78,3.96,6.31,5.33,10.82,3.52,4.23-1.7,5.76-5.66,3.97-10.59-1.2-3.29-2.41-6.58-3.61-9.87-.58-1.59-.42-3.09.41-4.16.05-.05.1-.09.14-.14,0,0-.02-.02-.03-.03-.06.03-.12.06-.17.1-1.09.39-2.19.79-3.28,1.2-.06.01-.13.03-.19.04,0,.01,0,.02,0,.04.07,0,.13,0,.2.01.71.15,1.33.52,1.79.99.03.02.06.07.07.1.05.14-.02.28-.15.33-.1.04-.19,0-.27-.07-.7-.7-1.8-1.07-2.9-.86-.04.01-.08.03-.11.04-.13.05-.26-.02-.32-.16-.05-.14,0-.29.13-.34,2.1-.8,4.2-1.57,6.31-2.31.14-.05.27,0,.34.19.05.15,0,.25-.14.34-1.51.89-2.08,2.59-1.37,4.53,1.2,3.29,2.4,6.58,3.59,9.87,1.87,5.22.23,9.47-4.21,11.26-4.73,1.9-9.53.39-11.45-3.84Z" fill="#fff" stroke-width="0"/><path d="m605.55,105.94c-.04-.06-.08-.12-.12-.18,0,0,0,.01,0,.02.03.06.05.13.08.19.38,1.15.77,2.29,1.15,3.44.01.07.03.14.04.21,0,0,.01,0,.02.01,0-.07.01-.14.02-.21.07-.23.16-.48.27-.72.02-.06.07-.11.12-.12.12-.04.26.05.31.19.03.08,0,.15-.02.21-.21.46-.33.87-.38,1.28-.03.2-.16.22-.27.23-.14.01-.22-.06-.27-.21-.79-2.33-1.57-4.66-2.36-6.99-.05-.15-.01-.27.13-.32.15-.05.25.02.31.17,1.57,4.31,5.14,6.23,9.1,5.03,3.8-1.15,5.78-4.52,4.77-8.32-1.09-4.06-4.84-4.84-8.33-5.45-2.43-.42-4.76-.79-5.78-2.38-.04-.06-.07-.12-.11-.19,0,0,0,0-.01,0,.02.07.03.14.05.2.18,2.26,3.14,2.64,5.69,3.09,3.25.56,6.92,1.31,7.86,4.79.6,2.22-.09,4.7-1.55,5.72-.14.11-.26,0-.33-.11-.09-.12-.1-.24-.02-.36.65-1.06.9-3.12.49-4.59-.73-2.62-3.59-3.18-6.61-3.68-2.92-.48-5.98-.9-6.87-3.58-.33-1-.31-2.21.03-3.3.02-.06.04-.13.06-.19,0,0-.01,0-.02-.01-.03.06-.07.11-.1.17-.74,1.14-.95,2.53-.52,3.82.91,2.74,4.09,3.21,7.22,3.77,2.82.5,5.61,1.07,6.26,3.38.16.56.17,1.22.08,1.95-.03.16-.11.23-.25.22-.18-.02-.25-.06-.3-.23-.75-2.57-3.39-3.12-6.36-3.63-3.29-.59-6.94-1.12-8.24-4.93-1.22-3.56.75-7.08,4.83-8.33,3.24-.99,6.14-.08,7.84,2.21.04.06.08.12.11.19,0,0,0-.01.01-.02-.02-.07-.05-.13-.07-.2-.28-.99-.55-1.99-.83-2.98,0-.07,0-.14-.01-.21,0,0,0,0-.01,0-.02.06-.05.12-.07.19-.14.21-.3.42-.51.66-.03.04-.08.06-.12.07-.13.04-.26-.04-.3-.18-.03-.09-.01-.2.05-.25.32-.36.53-.65.68-.94.07-.14.15-.19.29-.18.19.03.28.07.33.24.55,2,1.1,4,1.65,6,.05.17-.01.29-.17.33-.15.04-.25-.03-.31-.18-1.13-3.68-4.49-5.42-8.41-4.22-3.81,1.17-5.65,4.39-4.53,7.67,1.18,3.48,4.53,3.98,7.81,4.57,2.66.46,5.3.99,6.42,3.18.02.07.05.13.07.2,0,0,0,0,.01,0,0-.07-.01-.14-.02-.21-.03-.31-.06-.58-.14-.83-.56-1.98-3.05-2.49-5.87-2.99-3.11-.57-6.6-1.09-7.63-4.14-.65-1.94,0-4.1,1.67-5.44.13-.09.24-.08.36.04.12.15.14.26.05.41-.8,1.18-1.03,2.9-.6,4.21.77,2.36,3.52,2.73,6.44,3.21,3.02.49,6.2,1.1,7.02,4.07.32,1.16.27,2.68-.08,3.87-.02.06-.04.12-.06.19,0,0,.01,0,.02.01.03-.05.07-.11.1-.16.7-1.12.97-2.8.55-4.32-.86-3.14-4.22-3.82-7.45-4.39-2.7-.47-5.34-.87-6-2.9-.15-.48-.18-.99-.07-1.57.04-.2.18-.23.32-.22.15.02.22.06.26.17.61,1.9,2.96,2.27,5.73,2.75,3.51.59,7.57,1.44,8.74,5.85,1.08,4.1-1.04,7.75-5.06,8.96-3.28.99-6.32-.07-8.28-2.74Z" fill="#fff" stroke-width="0"/><path d="m623.38,105.52c-.04-.14.02-.27.12-.3,1.12-.45,1.7-1.42,1.44-2.47-1.49-6.05-2.98-12.1-4.46-18.15-.21-.88-1.3-1.36-2.74-1.21-.16.03-.26-.05-.3-.22-.03-.18.03-.29.18-.33,1.25-.32,2.49-.63,3.74-.93.16-.04.27.03.31.21,1.77,7.41,3.54,14.82,5.31,22.22.22-.05.44-.11.66-.16-1.75-7.41-3.5-14.83-5.24-22.24-.04-.17,0-.28.17-.32.41-.1.81-.19,1.22-.28.16-.04.27.04.31.21,1.7,7.42,3.4,14.85,5.09,22.27.58-.13,1.15-.25,1.73-.37.06,0,.12,0,.18,0,0-.01,0-.02,0-.03-.06-.01-.13-.03-.19-.04-.77-.28-1.33-.88-1.51-1.68-1.37-6.08-2.74-12.16-4.11-18.23-.28-1.23.53-2.39,2.07-2.91.13-.03.28.07.31.21.03.14-.05.27-.16.3-1.26.44-1.94,1.35-1.73,2.29,1.36,6.08,2.72,12.16,4.08,18.24.22.99,1.23,1.57,2.57,1.5.15-.02.24.06.27.24.02.18-.04.27-.17.3-1.15.25-2.29.5-3.43.76-.15.03-.23-.03-.27-.2-1.71-7.43-3.43-14.85-5.14-22.28-.25.06-.49.11-.74.17,1.73,7.42,3.47,14.84,5.21,22.26.04.17-.02.27-.17.3-.37.09-.73.17-1.1.26-.15.03-.23-.03-.27-.2-1.78-7.41-3.57-14.82-5.35-22.23-.62.14-1.24.29-1.86.44-.07,0-.13.01-.2.02,0,.01,0,.02,0,.03.07.01.14.02.21.03.81.23,1.38.76,1.56,1.48,1.48,6.05,2.95,12.11,4.43,18.16.32,1.33-.36,2.54-1.73,3.07-.12.03-.24-.06-.27-.2Z" fill="#fff" stroke-width="0"/><path d="m638.44,91.05c-.44-2.46-.55-4.93-.24-7.22.01-.07.02-.15.04-.22,0,0,0,0-.01,0-.02.06-.05.13-.07.19-.67,1.54-1.09,4.48-.55,7.43.62,3.36,2.63,7.71,4.76,9.65.12.11.13.22.07.36,0,.01,0,.02,0,.03-.06.14-.16.19-.3.12-2.82-1.51-5.53-5.71-6.34-10.07-.71-3.7.02-7.55,1.9-10.11.04-.06.08-.11.12-.17,0,0-.01,0-.02-.01-.05.04-.11.08-.16.13-2.46,2.02-3.54,5.94-2.7,10.21.72,3.67,2.78,7.5,4.84,9.23.13.09.15.2.11.36,0,0,0,.01-.01.02-.05.16-.14.21-.27.16-2.92-.99-5.47-4.69-6.45-9.51-1.49-7.15,1.76-12.87,8.12-13.88,4.36-.69,7.99,1.3,9.5,3.77.03.07.07.13.1.2,0,0,0-.01.01-.02-.01-.07-.03-.14-.04-.21-.13-1.08-.26-2.15-.4-3.23,0-.07.01-.14.02-.21,0,0-.02,0-.03,0-.03.06-.05.13-.08.19-.19.3-.46.48-.78.52-.26.03-.54-.03-.83-.17-.08-.04-.13-.11-.15-.21-.02-.14.07-.29.2-.3.04,0,.09,0,.14.03.21.1.39.14.57.12.37-.05.63-.42.73-1.07.02-.17.1-.26.25-.26,0,0,.02,0,.03,0,.15,0,.25.08.27.26.25,2.07.5,4.14.75,6.21.02.18-.05.28-.21.3-.16.02-.24-.07-.28-.23-.54-3-4.47-6-9.7-5.18-6.08.97-9.15,6.4-7.74,13.26.79,3.94,2.69,7.1,4.92,8.54.05.04.11.08.16.12,0,0,0-.01.01-.02-.05-.05-.09-.09-.14-.14-1.82-2.02-3.46-5.36-4.09-8.57-1.03-5.18.69-9.95,4.29-11.59.14-.06.24,0,.32.13,0,0,.01.02.02.03.07.15.06.27-.06.37-2.48,2.32-3.57,6.69-2.79,10.84.61,3.39,2.45,6.7,4.52,8.61.05.05.1.09.15.14,0,0,0-.01.01-.02-.04-.05-.08-.11-.12-.16-1.7-2.3-3.16-5.75-3.66-8.49-.69-3.69.14-7.56,1.15-8.72.1-.1.22-.1.34-.03.01,0,.02.02.03.03.12.08.17.18.13.34-.44,2.53-.39,5.27.09,8.03,1.17,6.49,4.17,10.31,7.61,9.79,3.34-.51,6.22-4.8,6.09-7.74,0-.16.05-.27.2-.28.15-.02.25.07.27.23.26,2.2.53,4.41.79,6.61.02.18-.05.28-.18.31,0,0-.02,0-.03,0-.13.03-.22-.04-.28-.19-.24-.6-.55-.91-.9-.86-.15.02-.3.1-.46.25-.04.04-.08.04-.12.05-.12.02-.23-.08-.25-.23-.01-.1.02-.18.08-.24.22-.21.45-.33.68-.36.3-.04.59.07.82.32.04.05.08.11.12.16,0,0,.02,0,.03,0-.02-.07-.04-.14-.07-.2-.15-1.22-.3-2.44-.44-3.66,0-.07,0-.14-.01-.21,0,0-.01,0-.02-.01,0,.07-.02.14-.03.21-.82,2.86-3.36,5.96-6.21,6.39-3.69.56-6.91-3.48-8.15-10.25Z" fill="#fff" stroke-width="0"/><path d="m662.86,98.93c-.01-.14.06-.26.17-.27,1.17-.26,1.9-1.11,1.82-2.19-.44-6.21-.89-12.43-1.33-18.64-.06-.9-1.05-1.56-2.48-1.65-.16,0-.25-.09-.26-.27,0-.18.08-.28.23-.29,1.27-.1,2.55-.2,3.82-.28.16-.01.26.08.27.26.49,7.6.98,15.2,1.48,22.8.23-.01.45-.03.68-.04-.47-7.6-.94-15.2-1.41-22.81-.01-.18.06-.28.22-.29.42-.03.83-.05,1.25-.07.16,0,.26.08.27.26.42,7.6.84,15.21,1.26,22.81.59-.03,1.17-.05,1.76-.07.06,0,.12.02.18.02,0-.01,0-.02.01-.03-.06-.02-.12-.05-.18-.07-.71-.4-1.15-1.09-1.2-1.91-.36-6.93-.72-13.86-1.09-20.79,0-.18.06-.28.22-.29,3.1-.16,6.19-.26,9.29-.31.13,0,.22.08.27.22.44,1.36.88,2.72,1.31,4.08.05.16,0,.27-.14.34,0,0,0,.01-.01.02-.14.07-.25.02-.32-.13-.49-.85-1.55-1.91-2.73-2.71-.06-.05-.11-.13-.11-.22,0-.14.1-.28.23-.28.04,0,.1.03.13.05.75.52,1.47,1.13,2,1.75.04.05.08.11.12.16,0,0,.02-.01.03-.02-.03-.06-.06-.13-.09-.19-.28-.85-.55-1.69-.83-2.53-2.96.05-5.92.15-8.88.29.34,6.84.69,13.69,1.03,20.53.05,1.01.95,1.76,2.26,1.91.15,0,.22.1.23.28,0,.18-.08.26-.22.27-1.16.05-2.33.1-3.49.17-.15,0-.22-.07-.23-.25-.43-7.61-.87-15.22-1.3-22.83-.25.01-.5.03-.76.04.46,7.61.91,15.22,1.37,22.82.01.18-.07.26-.21.27-.37.02-.75.05-1.12.07-.15,0-.22-.07-.23-.24-.51-7.6-1.01-15.21-1.52-22.81-.63.04-1.26.08-1.89.12-.06,0-.13-.01-.19-.02,0,.01,0,.02-.01.03.07.02.13.04.2.07.76.36,1.23.98,1.28,1.72.43,6.22.86,12.43,1.3,18.65.09,1.37-.78,2.44-2.21,2.73-.12,0-.22-.1-.24-.24Zm12.33-8.18c-.23-1.49-1.01-2.86-2.01-3.55-.1-.08-.16-.17-.15-.32,0-.19.06-.28.19-.35.32-.17.67-.41.89-.64.04-.03.1-.07.15-.07.13,0,.25.12.25.27,0,.08-.04.16-.09.21-.21.22-.5.42-.79.59.61.5,1.14,1.21,1.5,2.03.02.07.04.14.06.21,0,0,0-.01.01-.02,0-.07-.01-.14-.02-.21-.05-1.86-.1-3.72-.15-5.57,0-.07,0-.14,0-.21,0,0,0-.01-.02-.02-.02.07-.03.14-.05.21-.78,1.92-2.46,3.13-4.69,3.17-.13,0-.23-.1-.24-.25,0-.14.09-.28.22-.27,2.68-.08,4.51-1.91,4.67-4.74,0-.16.09-.26.25-.25.16,0,.25.09.25.25.08,3.15.16,6.3.24,9.46,0,.16-.08.26-.24.28-.14,0-.22-.07-.24-.24Z" fill="#fff" stroke-width="0"/><path d="m681.95,98.17c0-.14.09-.27.22-.27,1.16-.14,1.95-.89,1.97-1.84.06-6.23.12-12.46.18-18.69.01-1.01-.91-1.82-2.34-2.03-.16-.02-.24-.11-.24-.29.01-.18.1-.27.25-.27,5.32,0,10.64.17,15.95.5.13,0,1.11.15,1.14.3.33,1.39.66,2.78.98,4.17.03.16-.02.27-.17.33,0,0-.01.01-.02.02-.15.05-.25,0-.31-.15-.42-.89-1.39-2.03-2.5-2.92-.06-.05-.1-.13-.09-.23,0-.14.12-.27.25-.26.04,0,.1.04.13.06.71.58,1.37,1.25,1.86,1.91.04.06.07.11.11.17.01,0,.02,0,.03-.01-.02-.07-.05-.13-.08-.2-.21-.86-.41-1.73-.63-2.59-5-.33-10-.52-15.01-.56-.06-.01-.13-.02-.19-.03,0,.01,0,.02-.01.03.06.03.13.05.19.08.75.46,1.19,1.17,1.18,1.99-.07,6.23-.14,12.46-.22,18.69,0,.74-.36,1.37-.93,1.78-.05.03-.11.06-.16.1,0,0,0,.01.01.02.06-.01.12-.02.18-.03.52,0,1.05,0,1.57,0,.1-7.19.21-14.37.31-21.56,0-.18.08-.27.24-.27.41,0,.82.01,1.23.02.16,0,.25.1.24.28-.15,7.18-.3,14.37-.46,21.55.23,0,.46.01.69.02.17-7.18.35-14.37.52-21.55,0-.18.08-.27.24-.27.11,0,.23,0,.34,0,.16,0,1.13.13,1.13.31-.2,6.57-.4,13.13-.6,19.7-.03,1.05.8,1.88,1.9,1.92,2.6.1,5.2.25,7.8.43.32-1.36.64-2.71.97-4.06.02-.07.05-.14.07-.2,0,0-.02,0-.03,0-.03.06-.06.11-.1.17-.71.95-1.72,1.88-2.89,2.61-.06.02-.11.05-.17.07,0,.01,0,.02.01.03.06,0,.12-.01.18-.02.44.02.89.05,1.33.07.12,0,.22.14.21.29-.01.14-.13.25-.25.24-.68-.05-1.36-.09-2.03-.13-.13,0-.21-.08-.24-.24,0-.01,0-.02,0-.03-.03-.16.06-.29.24-.41,1.85-1.08,3.4-2.63,3.98-3.99.07-.16.16-.21.3-.15,0,0,0,0,.01,0,.14.06.18.16.14.33-.46,1.92-.92,3.84-1.37,5.76-.03.16-.11.22-.25.21-2.65-.19-5.3-.34-7.95-.44-1.35-.05-2.37-1.13-2.33-2.47.19-6.48.37-12.96.56-19.44-.25,0-.49-.01-.74-.02-.19,7.19-.37,14.38-.56,21.57,0,.18-.09.26-.24.25-.38,0-.76-.02-1.13-.03-.15,0-.22-.08-.21-.26.14-7.19.28-14.38.41-21.57-.25,0-.49,0-.74-.01-.12,7.19-.24,14.38-.35,21.57,0,.18-.09.26-.23.25-1.1-.02-2.2-.03-3.29-.03-.12,0-.22-.11-.22-.26Zm12.95-7.14c-.11-1.51-.77-2.93-1.71-3.7-.1-.09-.15-.18-.13-.33.02-.19.07-.27.21-.33.33-.15.7-.37.95-.57.04-.03.09-.06.15-.06.13,0,.23.14.23.29,0,.08-.05.16-.11.2-.24.18-.54.38-.84.52.57.53,1.04,1.29,1.33,2.15.01.07.03.14.04.21,0,0,0-.01.01-.02,0-.07,0-.14,0-.21.1-1.86.2-3.71.3-5.57,0-.07.02-.14.03-.21,0,0,0-.01-.01-.02-.02.07-.05.14-.07.21-.94,1.85-2.7,2.92-4.93,2.78-.13,0-.22-.12-.22-.27,0-.14.11-.27.24-.25,2.68.14,4.64-1.54,5.03-4.34.02-.16.12-.25.27-.23.16,0,.24.11.23.27-.18,3.15-.35,6.3-.53,9.44,0,.16-.1.25-.27.26-.14,0-.22-.09-.22-.25Z" fill="#fff" stroke-width="0"/><path d="m704.32,94.58c-.01-.07-.02-.14-.04-.21,0,0-.01,0-.02.01,0,.07,0,.14,0,.21-.11,1.2-.23,2.41-.34,3.61-.02.07-.03.14-.05.21,0,0,0,.01.01.02.03-.06.07-.12.1-.18.15-.18.34-.37.53-.55.05-.04.1-.07.16-.07.12.01.22.15.2.3,0,.08-.05.14-.1.18-.37.34-.65.67-.86,1.02-.11.17-.23.14-.33.1-.13-.04-.18-.15-.16-.31.22-2.45.45-4.9.67-7.35.01-.16.09-.25.25-.24.15.01.21.12.21.28-.31,4.57,2.14,7.77,6.22,8.28,3.91.48,7.07-1.8,7.68-5.69.65-4.16-2.45-6.38-5.38-8.35-2.04-1.36-4-2.64-4.28-4.5,0-.07-.01-.14-.02-.21,0,0,0,0-.01,0-.01.07-.02.14-.04.21-.75,2.14,1.78,3.68,3.92,5.12,2.72,1.83,5.76,3.99,5.21,7.54-.35,2.28-1.98,4.26-3.71,4.61-.17.04-.23-.11-.26-.23-.03-.15,0-.26.13-.34,1.02-.71,2.07-2.49,2.29-4.01.39-2.69-1.99-4.36-4.52-6.03-2.45-1.62-5.06-3.24-4.78-6.04.1-1.04.61-2.14,1.35-3,.04-.05.09-.1.13-.15,0,0,0-.01-.01-.02-.05.04-.11.08-.16.11-1.13.74-1.87,1.93-2,3.28-.27,2.87,2.41,4.59,5.02,6.36,2.36,1.59,4.66,3.24,4.32,5.62-.08.57-.34,1.19-.72,1.82-.09.13-.19.17-.32.1-.15-.09-.2-.16-.18-.33.35-2.65-1.83-4.22-4.31-5.89-2.74-1.86-5.83-3.83-5.47-7.84.32-3.75,3.52-6.17,7.72-5.67,3.33.39,5.6,2.4,6.23,5.18,0,.07.02.14.03.22,0,0,.01,0,.02-.01,0-.07.01-.14.02-.21.15-1.02.3-2.04.45-3.06.02-.07.05-.13.07-.2,0,0-.01,0-.02,0-.05.05-.09.09-.14.14-.21.13-.44.26-.73.4-.05.03-.09.02-.14.01-.13-.02-.22-.14-.2-.29.01-.1.07-.19.15-.21.43-.2.74-.38,1-.59.12-.1.21-.12.34-.05.16.11.23.18.2.36-.3,2.05-.61,4.1-.91,6.15-.03.18-.13.26-.28.24-.16-.02-.22-.13-.21-.29.46-3.82-1.9-6.77-5.94-7.25-3.92-.46-6.87,1.74-7.18,5.19-.33,3.66,2.5,5.47,5.24,7.33,2.23,1.49,4.41,3.04,4.55,5.5,0,.07-.01.14-.02.21,0,0,0,0,.01,0,.02-.07.05-.13.07-.2.1-.3.18-.56.21-.82.29-2.04-1.77-3.5-4.12-5.1-2.59-1.77-5.54-3.66-5.25-6.87.19-2.04,1.65-3.75,3.69-4.31.15-.03.25.03.31.18.05.18.03.29-.12.39-1.2.76-2.1,2.24-2.23,3.6-.25,2.47,2.09,3.92,4.55,5.54,2.54,1.67,5.19,3.51,4.74,6.55-.17,1.2-.84,2.56-1.63,3.51-.04.05-.09.1-.13.14,0,0,0,.01.01.02.05-.04.1-.07.15-.11,1.09-.74,2.01-2.17,2.24-3.73.49-3.22-2.3-5.2-5-7.02-2.26-1.52-4.49-2.94-4.27-5.08.05-.5.23-.98.56-1.46.12-.17.25-.14.38-.07.12.08.18.15.16.26-.21,1.99,1.77,3.27,4.09,4.83,2.95,1.96,6.3,4.36,5.59,8.87-.67,4.19-4.07,6.68-8.2,6.16-3.37-.42-5.69-2.61-6.39-5.85Z" fill="#fff" stroke-width="0"/><path d="m722.98,83.31c.69-1.75,1.39-3.5,2.1-5.25.06-.15.15-.24.29-.21.01,0,.03,0,.04,0,.15.03.21.07.28.2.17.32.51.55.91.62,1.34.23,2.68.48,4.02.74.13.03.22.17.2.32-.03.14-.17.23-.3.21-1.34-.26-2.67-.5-4.01-.74-.44-.08-.85-.31-1.11-.65-.48,1.18-.96,2.35-1.44,3.53-.03.07-.06.13-.09.2,0,0,.01,0,.02,0,.04-.05.09-.11.13-.16.66-.64,1.52-1.21,2.48-1.65.06-.02.13-.04.19-.06,0,0,0-.01-.01-.02-.07,0-.13,0-.2,0-.25-.04-.51-.08-.76-.12-.13-.02-.21-.15-.19-.29.02-.14.15-.25.28-.23.51.09,1.02.18,1.53.27.15.03.17.13.22.29,0,.01,0,.02,0,.03.05.16-.06.27-.19.33-1.7.76-3.33,1.74-3.96,2.9-.11.19-.23.16-.34.11-.14-.07-.16-.19-.11-.34Zm1.74,18.79c.03-.14.12-.22.25-.22,1.34.07,2.38-.55,2.58-1.59,1.33-6.81,2.66-13.62,4-20.43.03-.17.13-.25.29-.22.41.08.82.16,1.23.24.16.03.23.14.19.32-1.51,7.46-3.02,14.93-4.54,22.39.22.04.44.09.67.14,1.53-7.46,3.07-14.92,4.6-22.38.04-.17.13-.25.29-.22.41.08.82.17,1.23.26.16.03.23.15.19.32-1.58,7.45-3.17,14.9-4.75,22.35.61.14,1.22.27,1.83.41.06.02.11.04.17.05,0,0,.01,0,.02-.01-.05-.03-.11-.07-.16-.1-.65-.6-.94-1.39-.76-2.2,1.46-6.78,2.93-13.57,4.39-20.35.04-.17.13-.25.29-.22,1.75.38,3.49.77,5.23,1.19.39.09.79.02,1.08-.2.11-.09.19-.1.34-.07.01,0,.03,0,.04.01.14.04.19.15.19.31-.04,1.89-.09,3.77-.15,5.66,0,.21-.13.27-.25.27-.15.01-.24-.06-.26-.23-.13-1.29-1.17-2.93-2.5-4.23-.11-.11-.13-.23-.06-.38.07-.18.18-.24.34-.2.51.12,1.01.24,1.52.36.13.03.22.18.18.33-.03.14-.18.22-.31.19-.25-.07-.5-.13-.75-.2-.06-.03-.12-.05-.18-.08,0,0-.01,0-.02.01.05.05.1.09.15.14.71.78,1.29,1.65,1.65,2.5.02.07.04.13.06.2,0,0,.01,0,.02,0,0-.07,0-.15,0-.22.03-1.27.06-2.54.08-3.81-.37.21-.85.26-1.28.16-1.65-.39-3.31-.77-4.97-1.13-1.46,6.7-2.91,13.39-4.37,20.09-.21.99.55,2.01,1.98,2.5.14.05.2.16.15.33-.05.17-.15.25-.29.22-1.23-.28-2.47-.55-3.71-.82-.15-.03-.19-.14-.16-.31,1.57-7.46,3.14-14.92,4.71-22.37-.25-.05-.5-.1-.74-.16-1.55,7.46-3.1,14.93-4.65,22.39-.04.17-.14.25-.28.22-.37-.08-.73-.15-1.1-.22-.15-.03-.19-.14-.16-.31,1.5-7.47,3-14.95,4.5-22.42-.25-.05-.5-.1-.74-.15-1.33,6.72-2.66,13.45-3.98,20.17-.27,1.34-1.53,2.32-3.11,2.03-.12-.02-.19-.17-.16-.31Z" fill="#fff" stroke-width="0"/><path d="m740.93,105.69c.04-.14.14-.23.25-.2,1.2.15,2.17-.43,2.46-1.47,1.62-6.02,3.23-12.03,4.85-18.05.24-.87-.48-1.82-1.82-2.38-.15-.06-.2-.17-.16-.34.06-.17.17-.24.31-.2,1.25.32,2.49.65,3.73,1,.16.04.22.16.17.33-2.03,7.34-4.05,14.68-6.08,22.03.22.06.44.12.66.18,2.05-7.34,4.09-14.67,6.14-22.01.05-.17.15-.24.3-.2.4.11.81.23,1.21.34.16.05.22.16.17.33-2.1,7.32-4.19,14.64-6.29,21.97.57.17,1.13.34,1.7.51.05.03.11.05.16.08,0,0,.01-.02.02-.03-.05-.04-.1-.08-.15-.13-.55-.61-.74-1.41-.52-2.2,1.73-5.98,3.47-11.97,5.2-17.95.35-1.21,1.62-1.83,3.23-1.55.13.04.21.2.17.34-.04.14-.18.22-.29.18-1.32-.23-2.36.24-2.63,1.17-1.74,5.98-3.49,11.96-5.23,17.94-.28.98.32,1.97,1.53,2.56.14.06.18.17.13.34-.07.17-.17.22-.3.18-1.13-.34-2.26-.67-3.39-.99-.14-.04-.19-.14-.14-.31,2.08-7.33,4.17-14.66,6.25-21.99-.24-.07-.49-.14-.73-.21-2.06,7.34-4.13,14.67-6.19,22.01-.05.17-.15.23-.29.19-.36-.1-.73-.2-1.09-.3-.14-.04-.19-.14-.14-.31,2.01-7.35,4.03-14.7,6.04-22.05-.61-.17-1.23-.34-1.84-.51-.06-.03-.12-.05-.18-.08,0,0-.01.02-.02.03.06.04.11.08.17.13.6.59.85,1.33.65,2.04-1.63,6.01-3.26,12.03-4.88,18.04-.36,1.32-1.55,2.05-3,1.86-.12-.03-.18-.16-.15-.3Z" fill="#fff" stroke-width="0"/><path d="m760.98,111.9c-.11-7.12-.44-14.28-.97-21.45-.12-1.7-.73-3.16-1.51-3.53-.1-.05-.16-.19-.12-.31.05-.15.19-.25.36-.16.94.48,1.64,2.05,1.76,3.92.51,7.03.82,14.04.92,21.02-.02.07-.03.14-.05.21,0,0,.02,0,.03,0,.03-.06.06-.13.1-.19.2-.25.39-.5.59-.75-.13-7.7-.5-15.44-1.13-23.2-.01-.21.1-.31.28-.25.43.14.86.28,1.29.42.13.04.19.13.21.29.5,6.93.81,13.84.92,20.72-.02.07-.03.14-.05.21,0,0,.02,0,.03,0,.03-.06.06-.13.1-.19.2-.25.4-.5.6-.74-.1-6.52-.38-13.07-.83-19.64-.01-.21.1-.31.29-.24,1.55.52,3.11,1.05,4.65,1.6.14.05.21.18.15.34-.06.17-.18.23-.34.19-1.6-.39-2.59-.22-2.83.48-.05.14-.08.31-.06.51.28,4.93.47,9.85.55,14.75-.02.07-.03.14-.05.21,0,0,.02,0,.03,0,.03-.06.07-.12.1-.19,2.83-3.39,5.73-6.74,8.7-10.05.94-1.05,2.23-1.76,3.49-1.93.07,0,.14,0,.21,0,0-.01,0-.02,0-.04-.06-.01-.13-.03-.19-.04-1.38-.55-2.77-1.1-4.15-1.63-.06-.03-.11-.07-.17-.1,0,0-.02.02-.03.02.05.05.09.09.14.14.41.57.6,1.28.53,2.02.26-.26.55-.46.85-.67.07-.04.15-.06.22-.03.13.05.19.21.14.35-.02.06-.07.09-.11.13-.46.34-.84.67-1.21,1.1-.11.13-.23.19-.35.09-.01-.01-.02-.02-.04-.03-.12-.1-.15-.18-.11-.34.37-1.29-.04-2.56-1.27-3.15-.15-.07-.2-.2-.12-.36.08-.16.19-.22.34-.17,2.31.86,4.6,1.76,6.89,2.7.14.06.2.19.13.35,0,0,0,0,0,.01-.06.15-.17.21-.32.18-1.46-.27-3.29.4-4.5,1.74-3.13,3.48-6.19,7.01-9.17,10.58-.06.08-.16.11-.25.08-.09-.03-.14-.12-.14-.22-.09-5.13-.3-10.27-.61-15.43-.01-.28.02-.52.09-.73.19-.55.62-.89,1.28-.99.07,0,.14,0,.21-.01,0-.01,0-.02,0-.04-.07-.01-.13-.02-.2-.03-.73-.25-1.47-.49-2.21-.73.42,6.43.68,12.84.77,19.22,0,.14-.04.23-.12.33-.36.43-.71.86-1.07,1.29-.06.08-.16.11-.25.08-.09-.03-.13-.12-.14-.22-.12-7.07-.44-14.17-.97-21.3-.25-.08-.5-.16-.76-.25.59,7.63.94,15.23,1.05,22.79,0,.14-.04.23-.12.33-.3.37-.61.74-.91,1.11-.13.16-.24.14-.37.09-.12-.04-.17-.13-.17-.28Z" fill="#fff" stroke-width="0"/><path d="m769.12,114.89c.06-.15.16-.21.3-.19,1.19.14,3.37-1.16,5.28-3.17,2.44-2.59,4.92-5.14,7.44-7.67.19-.18.41-.54.62-1.01.19-.44.35-.94.48-1.44.04-.17.14-.24.29-.22.18,0,.26.08.24.26-.16,5.38-.44,10.74-.83,16.07-.04.44-.13.85-.29,1.18-.28.6-.73.99-1.28,1.13-.06,0-.13.01-.19.02,0,0,0,.01,0,.02.06.02.12.03.18.05.68.31,1.36.62,2.04.94.56-6.7.93-13.45,1.12-20.24.01-.14.06-.24.19-.32.4-.26.8-.52,1.19-.78.07-.06.16-.07.24-.03.1.04.15.15.13.25-.22,7.34-.65,14.64-1.3,21.88.22.11.45.22.67.33.7-7.61,1.17-15.28,1.4-23.01,0-.14.04-.25.16-.33.33-.26.66-.53.99-.79.11-.09.22-.11.34-.06.19.09.24.16.23.33-.24,7.51-.71,14.97-1.4,22.37-.11,1.15.19,2.23.72,2.72.09.06.12.2.06.32-.07.13-.22.18-.33.12-.68-.34-1.03-2.03-.92-3.14.67-7.27,1.13-14.6,1.37-21.98.02-.07.04-.14.06-.2,0,0,0,0-.01,0-.04.06-.09.11-.13.17-.22.17-.43.35-.65.52-.24,7.84-.73,15.63-1.46,23.35,0,.04-.01.08-.02.11-.06.13-.21.18-.34.12-.36-.18-.71-.35-1.07-.52-.11-.05-.17-.13-.15-.29.64-7.1,1.07-14.26,1.29-21.46.02-.07.04-.14.06-.2,0,0,0,0-.01,0-.05.06-.09.11-.14.17-.22.15-.45.3-.67.44-.21,6.89-.61,13.74-1.2,20.54,0,.03-.01.08-.02.11-.06.13-.21.18-.34.12-1.17-.56-2.34-1.11-3.51-1.65-.13-.06-.16-.18-.09-.36.07-.15.17-.21.32-.16.96.26,1.69-.03,2.06-.81.12-.26.2-.6.23-.96.35-4.82.61-9.66.77-14.52.01-.07.02-.14.03-.22,0,0-.01,0-.02,0-.02.07-.05.13-.07.2-.24.6-.49,1-.73,1.23-2.53,2.52-5.01,5.07-7.45,7.66-1.54,1.63-3.26,2.8-4.58,3.16-.06,0-.13.02-.19.03,0,0,0,.01,0,.02.06.01.12.02.18.04,1.28.52,2.56,1.05,3.83,1.59.05.03.1.07.15.1,0,0,.01,0,.02,0-.04-.05-.08-.1-.11-.15-.36-.64-.44-1.48-.25-2.36-.54.47-1.01.8-1.41,1-.06.03-.13.02-.18,0-.11-.05-.16-.19-.11-.32.03-.07.07-.13.14-.15.45-.22,1-.65,1.72-1.31.12-.11.23-.11.35-.03,0,0,.01.02.02.03.12.08.13.19.08.35-.53,1.44-.19,2.77.85,3.41.09.06.14.2.09.32-.06.13-.2.19-.33.14-2-.86-4.01-1.7-6.03-2.51-.17-.07-.16-.2-.11-.34Zm8.35-4.55c.06-.13.2-.21.32-.16,1.43.61,2.86,1.24,4.29,1.89.12.05.17.22.11.35-.06.13-.21.19-.33.14-1.42-.64-2.85-1.27-4.28-1.88-.12-.05-.16-.19-.11-.33Z" fill="#fff" stroke-width="0"/><path d="m788.9,123.87c.08-.16.19-.21.33-.16,1.28.42,2.4.19,2.82-.61,2.89-5.52,5.77-11.04,8.66-16.57.5-.96.09-2.08-1.03-2.84-.11-.06-.14-.2-.07-.33.07-.13.22-.2.34-.13,1.35.91,1.84,2.32,1.2,3.53-2.9,5.52-5.79,11.03-8.69,16.55-.34.66-1,1.04-1.79,1.08-.07,0-.13,0-.2-.01,0,.01,0,.02,0,.03.06.02.12.04.18.05.53.27,1.06.54,1.59.81,3.56-6.73,7.12-13.47,10.68-20.2.08-.16.19-.21.34-.13.37.2.75.4,1.12.6.15.08.18.21.1.36-3.61,6.71-7.21,13.42-10.82,20.13.21.11.42.22.63.34,3.63-6.7,7.25-13.39,10.88-20.09.08-.16.2-.2.35-.12,1.24.67,2.47,1.35,3.7,2.05.13.07.17.2.09.37-.09.15-.2.2-.36.13-1.54-.63-2.85-.44-3.34.45-3,5.46-6.01,10.92-9.01,16.38-.53.98-.19,2.01.88,2.61,2.24,1.26,4.46,2.55,6.66,3.89.92-1.12,1.84-2.24,2.77-3.35.05-.05.11-.1.16-.15,0,0-.02,0-.02-.01-.06.04-.11.07-.17.11-1.12.55-2.54.95-4.01,1.07-.06,0-.13,0-.19,0,0,0,0,.01,0,.02.06.02.12.04.17.07.46.26.91.53,1.36.8.11.07.14.23.06.36-.07.12-.23.16-.34.1-.66-.39-1.31-.78-1.97-1.17-.12-.07-.16-.17-.12-.33,0,0,.01-.02.02-.03.04-.16.17-.24.41-.25,2.23-.13,4.41-.82,5.58-1.8.13-.11.24-.12.34,0,0,0,.02.01.02.02.11.1.1.23,0,.36-1.3,1.56-2.59,3.11-3.87,4.68-.1.13-.21.16-.33.08-2.25-1.37-4.52-2.69-6.8-3.97-1.29-.72-1.71-2.04-1.02-3.29,2.99-5.46,5.99-10.93,8.98-16.39.39-.72,1.16-1.11,2.13-1.09.07,0,.14.02.21.03,0,0,0-.01,0-.02-.06-.03-.12-.06-.18-.08-.61-.33-1.23-.67-1.84-.99-3.64,6.7-7.28,13.39-10.93,20.09-.08.16-.2.19-.33.11-.34-.19-.69-.37-1.03-.56-.13-.07-.16-.18-.07-.33,3.6-6.72,7.19-13.44,10.79-20.16-.22-.12-.45-.24-.67-.36-3.58,6.73-7.15,13.46-10.73,20.19-.08.16-.19.19-.33.12-1.06-.56-2.11-1.11-3.18-1.65-.12-.06-.16-.17-.09-.34Z" fill="#fff" stroke-width="0"/></g></svg>