<?xml version="1.0" encoding="UTF-8"?><svg id="Layer_1" xmlns="http://www.w3.org/2000/svg" viewBox="0 0 1366 768"><ellipse cx="681.68" cy="323.78" rx="217.59" ry="215.5" fill="#fff" stroke-width="0"/><polygon points="899.27 313.95 899.27 679.03 893.84 679.03 893.84 710.23 891.68 710.23 891.68 663.35 886.25 663.35 886.25 710.23 883.88 710.23 883.88 672.51 878.45 672.51 878.45 710.23 875.88 710.23 875.88 688.93 870.45 688.93 870.45 710.23 868.07 710.23 868.07 672.51 862.64 672.51 862.64 710.23 860.04 710.23 860.04 650.65 854.61 650.65 854.61 710.23 852.24 710.23 852.24 640.19 846.8 640.19 846.8 710.23 844.65 710.23 844.65 663.35 839.22 663.35 839.22 710.23 836.85 710.23 836.85 675.21 831.41 675.21 831.41 710.23 828.81 710.23 828.81 693.41 823.38 693.41 823.38 710.23 821.01 710.23 821.01 687.89 815.58 687.89 815.58 710.23 813.4 710.23 813.4 691.37 807.97 691.37 807.97 710.23 805.59 710.23 805.59 681.13 800.16 681.13 800.16 710.23 797.57 710.23 797.57 663.35 792.14 663.35 792.14 710.23 789.77 710.23 789.77 667.62 784.34 667.62 784.34 710.23 781.74 710.23 781.74 652.03 776.3 652.03 776.3 710.23 773.93 710.23 773.93 640.19 768.5 640.19 768.5 710.23 766.35 710.23 766.35 602.82 760.91 602.82 760.91 710.23 758.54 710.23 758.54 625 753.11 625 753.11 710.23 750.51 710.23 750.51 654.22 745.08 654.22 745.08 710.23 742.7 710.23 742.7 663.35 737.27 663.35 737.27 710.23 735.1 710.23 735.1 676.6 729.66 676.6 729.66 710.23 727.29 710.23 727.29 670.02 721.86 670.02 721.86 710.23 719.47 710.23 719.47 663.35 714.04 663.35 714.04 710.23 711.67 710.23 711.67 683.98 706.23 683.98 706.23 710.23 703.63 710.23 703.63 676.6 698.2 676.6 698.2 710.23 695.83 710.23 695.83 687.89 690.4 687.89 690.4 710.23 688.25 710.23 688.25 672.51 682.82 672.51 682.82 710.23 680.44 710.23 680.44 667.62 675.01 667.62 675.01 710.23 672.41 710.23 672.41 683.98 666.98 683.98 666.98 710.23 664.61 710.23 664.61 692.72 659.18 692.72 659.18 710.23 656.99 710.23 656.99 687.89 651.56 687.89 651.56 710.23 649.19 710.23 649.19 675.21 643.76 675.21 643.76 710.23 641.38 710.23 641.38 680.42 635.95 680.42 635.95 710.23 633.63 710.23 633.63 671.38 628.2 671.38 628.2 710.23 625.83 710.23 625.83 683.98 620.4 683.98 620.4 710.23 617.8 710.23 617.8 697.12 612.37 697.12 612.37 710.23 609.99 710.23 609.99 687.89 604.56 687.89 604.56 710.23 602.41 710.23 602.41 676.87 596.98 676.87 596.98 710.23 594.61 710.23 594.61 650.61 589.18 650.61 589.18 710.23 586.58 710.23 586.58 667.62 581.14 667.62 581.14 710.23 578.77 710.23 578.77 681.49 573.34 681.49 573.34 710.23 571.16 710.23 571.16 694.41 565.73 694.41 565.73 710.23 563.35 710.23 563.35 678.59 557.92 678.59 557.92 710.23 555.54 710.23 555.54 688.93 550.11 688.93 550.11 710.23 547.61 710.23 547.61 663.35 542.18 663.35 542.18 710.23 539.81 710.23 539.81 681.49 534.38 681.49 534.38 710.23 531.77 710.23 531.77 657.74 526.34 657.74 526.34 710.23 523.97 710.23 523.97 620.11 518.54 620.11 518.54 710.23 516.39 710.23 516.39 652.76 510.95 652.76 510.95 710.23 508.58 710.23 508.58 667.62 503.15 667.62 503.15 710.23 500.55 710.23 500.55 677.22 495.12 677.22 495.12 710.23 492.75 710.23 492.75 684.78 487.31 684.78 487.31 710.23 485.13 710.23 485.13 671.16 479.7 671.16 479.7 710.23 477.33 710.23 477.33 644.22 471.9 644.22 471.9 710.23 469.51 710.23 469.51 669.64 464.08 669.64 464.08 313.95 899.27 313.95" fill="#fff" stroke-width="0"/><path d="m945.18,740.47H420.96v-406.16c.58-153.67,124.54-277.22,268.93-273.37,139.42,3.72,254.83,125.07,255.29,273.37v406.16Z" fill="none" stroke="#fff" stroke-miterlimit="10"/><path d="m956.86,750.35H409.28v-417.41c.6-157.92,130.09-284.9,280.91-280.94,145.63,3.83,266.18,128.54,266.66,280.94v417.41Z" fill="none" stroke="#fff" stroke-miterlimit="10"/><path d="m595.34,223.19c4.31-2.77,12.33-6.97,22.44-6.99,1.99,0,6.52-.02,11.96,1.65,4.78,1.48,5.74,2.85,11.9,4.78,3.9,1.22,6.8,2.12,10.48,1.91,4.29-.24,7.29-1.8,9.41-2.81,2.79-1.33,17.51-8.32,31.68-6.67,4.67.54,9.17,2.02,11.88,2.87,7.95,2.57,8.94,4.29,13.7,4.63,4.16.32,7.37-.69,13.35-2.53,5.89-1.82,7.29-3.15,12.3-3.94,1.31-.21,4.8-.73,8.85-.28,10.25,1.14,17.86,7.82,17.49,8.51-.3.56-5.77-3.3-15.39-4.29-1.97-.19-5.98-.58-11.04.28-5.44.92-6.43,2.34-15.11,4.84-4.84,1.41-7.29,2.1-9.84,2.1-4.46,0-6.11-1.41-13.35-3.94-7.14-2.49-11.19-3.88-16.74-4.12-4.95-.21-9.3.58-11.96,1.22-.94.24-1.84.49-2.12.58-2.32.66-5.44,1.71-9.02,3.37-2.47,1.14-2.64,1.39-5.14,2.47-1.22.51-2.96,1.22-5.08,1.61-2.23.41-3.97.36-4.95.34-11.04-.28-17.62-7.42-30.38-8.21-1.84-.11-6.02-.24-11,1.2-4.18,1.22-7.89,3.24-7.72,3.75.17.49,5.49-2.1,13.25-1.89,3.22.09,5.77.62,6.88.9,2.21.51,3.79,1.14,7.14,2.55,8,3.37,7.59,3.52,10.59,4.61,3.58,1.29,6.82,2.47,11.08,2.57,3.84.09,6.65-.71,9.86-1.67,7.82-2.34,8.38-4.54,16.01-7.01,3.19-1.03,6.86-2.19,11.73-2.14,5.32.04,9.41,1.48,12.73,2.66,6.62,2.32,7.57,3.56,12.99,5.14,4.2,1.22,7.67.54,8.53.47,5.89-.47,7.61-2.27,15.39-4.63,5.25-1.59,9.5-2.87,14.79-2.7,5.59.17,10.05,1.91,12.88,3.28" fill="none" stroke="#6479ec" stroke-linecap="round" stroke-miterlimit="10" stroke-width=".6"/><path d="m619,211.36c10.59-27.18,37.02-45.04,66.05-44.69,28.53.34,54.19,18.2,64.5,44.97" fill="none" stroke="#6479ec" stroke-linecap="round" stroke-miterlimit="10" stroke-width=".75"/><text transform="translate(391.97 758.04) rotate(-90)" fill="#fff" font-family="FeneonDense-144, &apos;Feneon Dense&apos;" font-size="18"><tspan x="0" y="0">ROCK</tspan></text><text transform="translate(391.43 688.14) rotate(-90)" fill="#fff" font-family="FeneonDense-144, &apos;Feneon Dense&apos;" font-size="18"><tspan x="0" y="0" xml:space="preserve"> SOUL</tspan></text><text transform="translate(391.31 561.65) rotate(-90)" fill="#fff" font-family="FeneonDense-144, &apos;Feneon Dense&apos;" font-size="18"><tspan x="0" y="0">ELECTRONIC</tspan></text><text transform="translate(390.52 418.15) rotate(-90)" fill="#fff" font-family="FeneonDense-144, &apos;Feneon Dense&apos;" font-size="18"><tspan x="0" y="0">POP</tspan></text><text transform="translate(974.27 648.62) rotate(90)" fill="#fff" font-family="FeneonDense-144, &apos;Feneon Dense&apos;" font-size="18"><tspan x="0" y="0">CLASSICAL</tspan></text><text transform="translate(975.81 585.5) rotate(90)" fill="#fff" font-family="FeneonDense-144, &apos;Feneon Dense&apos;" font-size="18"><tspan x="0" y="0" letter-spacing="-.03em">J</tspan><tspan x="9.28" y="0">AZZ</tspan></text><text transform="translate(975.81 489.5) rotate(90)" fill="#fff" font-family="FeneonDense-144, &apos;Feneon Dense&apos;" font-size="18"><tspan x="0" y="0">HIP HOP</tspan></text><text transform="translate(975.47 392.29) rotate(90)" fill="#fff" font-family="FeneonDense-144, &apos;Feneon Dense&apos;" font-size="18"><tspan x="0" y="0">REGGAE</tspan></text><text transform="translate(391.86 366.3) rotate(-90)" fill="#fff" font-family="FeneonDense-144, &apos;Feneon Dense&apos;" font-size="18"><tspan x="0" y="0">FUNK</tspan></text><text transform="translate(976.7 312.04) rotate(90)" fill="#fff" font-family="FeneonDense-144, &apos;Feneon Dense&apos;" font-size="18"><tspan x="0" y="0">ME</tspan><tspan x="30.05" y="0" letter-spacing="-.05em">T</tspan><tspan x="42.13" y="0">AL</tspan></text><text transform="translate(391.32 616.02) rotate(-90)" fill="#fff" font-family="FeneonDense-144, &apos;Feneon Dense&apos;" font-size="18"><tspan x="0" y="0">RAP</tspan></text><g opacity=".92"><path d="m558.55,135.93c-.09-.13-.09-.25.02-.35,1.17-1.17,1.07-3.21-.29-5.22-2.44-3.58-4.89-7.16-7.33-10.74-.08-.12-.06-.29.05-.37.12-.08.29-.04.37.08,2.44,3.59,4.87,7.17,7.31,10.76,1.13,1.67,1.46,3.39.98,4.68-.03.05-.06.11-.1.16.01,0,.02.01.03.02.04-.04.09-.09.13-.13.86-.59,1.72-1.18,2.58-1.76.06-.03.11-.05.17-.08,0-.01,0-.02,0-.03-.07.01-.13.02-.2.04-.62.03-1.21-.11-1.68-.42-.03-.02-.05-.05-.07-.09-.08-.12-.07-.28.04-.36.08-.06.2-.04.27.01.67.44,1.67.48,2.61.12.14-.05.25-.01.33.13.09.17.08.28-.05.36-1.61,1.07-3.21,2.16-4.8,3.27-.12.08-.23.07-.36-.08Zm9.21-6.03c-5.9-4.39-11.99-8.6-18.28-12.62-1.55-1-3.23-.64-3.73-.28-.12.08-.27.05-.36-.07-.08-.12-.07-.29.05-.37.58-.41,2.56-.84,4.3.27,6.15,3.96,12.12,8.1,17.91,12.42.05.05.09.11.14.16,0,0,.02-.01.02-.02-.03-.06-.06-.13-.09-.19-.05-.31-.11-.62-.16-.93-6.18-4.63-12.57-9.06-19.16-13.28-.03-.02-.06-.06-.08-.08-.08-.12-.06-.29.06-.37.38-.26.77-.52,1.15-.78.13-.09.25-.09.37,0,5.84,3.82,11.52,7.81,17.03,11.96.04.05.09.11.13.16,0,0,.02-.01.02-.02-.03-.06-.06-.13-.09-.19-.08-.32-.16-.64-.23-.95-5.19-3.91-10.52-7.69-16.01-11.32-.03-.02-.06-.06-.08-.09-.08-.12-.06-.29.06-.37.39-.26.77-.51,1.16-.76.13-.09.25-.08.37.01,4.76,3.23,9.41,6.56,13.94,10-1.21-5.48-2.3-11.01-3.27-16.58-.02-.12.02-.24.12-.29.12-.07.29-.02.37.1,3.46,6.02,6.92,12.03,10.38,18.05.41.71.38,1.55-.02,2.28-.04.05-.08.11-.12.16,0,0,.02.01.03.02.05-.04.09-.08.14-.12.53-.32,1.06-.63,1.59-.94-3.78-6.61-7.55-13.23-11.33-19.84-.09-.15-.07-.28.08-.36.38-.22.76-.43,1.14-.65.15-.08.28-.05.37.11,3.72,6.64,7.45,13.29,11.17,19.93.2-.11.41-.23.62-.34-3.7-6.66-7.4-13.31-11.11-19.97-.09-.15-.06-.28.09-.36,1.17-.65,2.35-1.29,3.53-1.92.14-.07.27-.03.36.12.08.16.06.28-.08.37-1.22.89-1.71,1.99-1.28,2.78,2.99,5.47,5.97,10.94,8.96,16.4.52.95,1.61,1.27,2.78.83.1-.05.24,0,.31.13.07.13.02.28-.09.34,0,0-.02,0-.02.01-1.37.53-2.72.12-3.38-1.08-3-5.46-6-10.92-9-16.38-.36-.65-.29-1.42.18-2.16.05-.06.09-.11.14-.17,0,0-.02-.01-.03-.02-.05.04-.11.08-.16.12-.58.32-1.15.64-1.73.96,3.69,6.67,7.38,13.34,11.07,20.01.09.16.05.27-.08.34-.34.19-.68.38-1.02.57-.13.08-.24.04-.32-.11-3.74-6.64-7.48-13.28-11.22-19.92-.23.13-.46.26-.69.39,3.76,6.63,7.53,13.26,11.29,19.88.09.15.05.27-.08.34-1.06.6-2.11,1.21-3.16,1.83-.12.07-.24.05-.34-.1-.09-.15-.08-.27.05-.36,1.07-.88,1.46-2.01.96-2.89-3.21-5.56-6.42-11.13-9.63-16.69-.03-.07-.07-.14-.1-.2,0,0,0,0-.01,0,.02.07.03.14.05.21.94,5.34,2,10.65,3.17,15.91.06.23-.08.31-.27.17-4.71-3.59-9.55-7.06-14.51-10.42-.24.16-.48.32-.72.47,5.37,3.58,10.61,7.3,15.69,11.16.1.07.17.16.2.29.13.62.26,1.24.4,1.86.06.23-.07.33-.26.18-5.71-4.3-11.6-8.44-17.67-12.4-.24.16-.48.32-.72.48,6.48,4.18,12.77,8.56,18.84,13.13.12.08.17.16.19.3.08.46.15.93.23,1.39.04.2-.05.26-.17.34-.11.07-.21.07-.33-.02Z" stroke-width="0"/><path d="m581.84,113.23c-2-3.96-3.99-7.91-5.99-11.87-.46-.91-1.73-1.23-3.13-.66-.16.06-.29.02-.35-.14-.07-.16-.03-.29.11-.36,1.19-.62,2.39-1.23,3.59-1.82.15-.08.28-.03.36.13,2.26,4.56,4.52,9.13,6.78,13.69,1.35,2.7,4.07,3.89,7.09,3.36.06-.01.12-.02.19-.03,0,0,0-.01,0-.02-.06,0-.13-.01-.19-.02-3.01-.4-5.45-1.64-6.31-3.39-2.28-4.65-4.57-9.3-6.85-13.94-.08-.16-.05-.28.1-.36.39-.19.77-.38,1.16-.56.15-.07.28-.03.36.13,2.21,4.6,4.43,9.19,6.64,13.79.4.83,1.13,1.48,1.96,1.79.06.03.12.06.19.09,0,0,0-.01,0-.02-.05-.05-.11-.09-.16-.14-.52-.59-1.03-1.43-1.46-2.34-1.82-3.81-3.64-7.63-5.47-11.44-.59-1.23-.08-2.68,1.33-3.46.2-.11.33,0,.38.11.06.13,0,.26-.1.33-1.16.73-1.61,1.83-1.15,2.8,1.81,3.82,3.63,7.64,5.44,11.46.54,1.14,1.26,2.15,1.81,2.67.17.15.14.27.11.39-.04.14-.13.22-.27.2-1.24-.22-2.45-1.04-3.04-2.24-2.19-4.52-4.37-9.03-6.56-13.54-.23.11-.46.23-.7.34,2.23,4.58,4.47,9.15,6.7,13.73.88,1.8,3.75,3.09,7.18,3.23.13.01.27.14.28.28.02.17-.02.26-.17.31-3.7,1.27-7.26.02-8.93-3.29-2.23-4.48-4.46-8.96-6.69-13.44-.61.3-1.21.6-1.82.9-.06.02-.13.04-.19.06,0,.01,0,.02,0,.04.07,0,.14-.01.22-.02.91.04,1.65.46,2.02,1.2,1.99,3.96,3.98,7.92,5.96,11.88,1.97,3.87,6.61,5,11.09,2.97,4.21-1.9,5.61-5.93,3.64-10.79-1.33-3.24-2.67-6.48-4-9.72-.64-1.56-.53-3.08.29-4.19.05-.05.09-.1.14-.14,0,0-.02-.02-.03-.02-.06.03-.12.07-.17.1-1.1.44-2.2.9-3.3,1.36-.07.02-.13.03-.2.05,0,.01,0,.02,0,.04.07,0,.13,0,.2,0,.73.11,1.37.46,1.85.9.03.02.06.06.07.09.06.13-.01.28-.14.34-.1.04-.19.01-.27-.06-.74-.67-1.87-.98-2.98-.72-.04.02-.08.03-.11.05-.13.05-.27,0-.33-.14-.06-.13,0-.29.12-.35,2.11-.9,4.23-1.78,6.35-2.62.14-.06.28,0,.35.17.06.15.02.25-.13.34-1.51.96-2.04,2.7-1.25,4.6,1.33,3.24,2.65,6.48,3.98,9.72,2.07,5.15.57,9.47-3.85,11.47-4.71,2.13-9.62.88-11.74-3.25Z" stroke-width="0"/><path d="m604.89,106.26c-.04-.06-.08-.12-.13-.18,0,0,0,.01,0,.02.03.06.06.13.09.19.42,1.13.85,2.26,1.27,3.39.02.07.03.14.05.21,0,0,.01,0,.02.01,0-.07,0-.14.01-.21.06-.23.15-.48.25-.73.02-.06.06-.11.12-.13.12-.04.27.04.32.17.03.08.01.15-.01.21-.2.47-.31.89-.35,1.3-.03.2-.15.23-.27.24-.14.02-.23-.05-.28-.2-.87-2.3-1.74-4.6-2.61-6.9-.06-.15-.02-.27.12-.32.15-.06.25,0,.32.16,1.72,4.25,5.4,6.03,9.37,4.68,3.8-1.28,5.72-4.72,4.59-8.49-1.21-4.03-5.03-4.68-8.6-5.16-2.48-.33-4.86-.61-5.94-2.15-.04-.06-.08-.12-.11-.18,0,0,0,0-.01,0,.02.07.04.13.06.2.25,2.26,3.27,2.52,5.87,2.87,3.32.44,7.06,1.06,8.1,4.51.67,2.21.03,4.71-1.42,5.78-.14.11-.26,0-.34-.09-.1-.12-.11-.24-.03-.36.63-1.08.82-3.15.36-4.61-.81-2.6-3.73-3.06-6.8-3.44-2.97-.37-6.1-.66-7.08-3.31-.36-.98-.38-2.2-.07-3.3.02-.06.04-.13.06-.19,0,0-.01,0-.02-.01-.03.06-.07.12-.1.17-.72,1.17-.89,2.58-.42,3.84,1.01,2.7,4.25,3.04,7.45,3.49,2.87.39,5.72.86,6.44,3.15.18.55.21,1.22.13,1.95-.02.16-.1.24-.25.23-.18,0-.25-.05-.31-.22-.83-2.54-3.52-3-6.54-3.4-3.35-.46-7.07-.84-8.51-4.6-1.35-3.51.55-7.12,4.67-8.54,3.27-1.13,6.25-.32,8.04,1.91.04.06.08.12.12.18,0,0,0-.01,0-.02-.03-.07-.05-.13-.08-.2-.31-.98-.61-1.97-.92-2.95,0-.07-.01-.14-.02-.21,0,0,0,0-.01,0-.02.06-.05.13-.07.19-.14.21-.3.43-.5.68-.03.04-.08.06-.12.07-.13.04-.27-.03-.31-.17-.03-.09-.02-.2.05-.25.31-.37.52-.67.67-.97.07-.14.15-.2.29-.19.2.02.29.06.34.23.61,1.98,1.22,3.96,1.83,5.94.05.17,0,.29-.16.34-.16.05-.26-.02-.32-.17-1.24-3.64-4.71-5.27-8.68-3.91-3.85,1.33-5.62,4.63-4.39,7.87,1.31,3.43,4.72,3.79,8.07,4.26,2.72.35,5.41.79,6.6,2.95.03.07.05.13.08.2,0,0,0,0,.01,0,0-.07-.02-.14-.02-.21-.04-.31-.08-.58-.16-.83-.62-1.97-3.16-2.38-6.03-2.77-3.17-.45-6.73-.82-7.87-3.84-.72-1.91-.12-4.11,1.54-5.52.13-.1.24-.09.36.02.13.14.16.25.06.4-.78,1.22-.96,2.95-.49,4.24.86,2.33,3.66,2.59,6.64,2.96,3.08.38,6.32.87,7.23,3.82.36,1.15.34,2.68.02,3.88l-.06.19s.01,0,.02.01c.03-.06.06-.11.09-.17.68-1.14.91-2.83.44-4.34-.95-3.11-4.38-3.68-7.68-4.13-2.75-.37-5.44-.66-6.18-2.67-.17-.47-.21-.99-.12-1.57.04-.2.17-.23.32-.23.15.01.23.06.27.16.67,1.88,3.07,2.15,5.91,2.53,3.59.46,7.73,1.16,9.02,5.54,1.2,4.07-.84,7.79-4.87,9.15-3.28,1.11-6.38.17-8.45-2.43Z" stroke-width="0"/><path d="m622.91,105.2c-.04-.14,0-.27.11-.3,1.12-.49,1.68-1.47,1.4-2.52-1.65-6.01-3.3-12.02-4.95-18.02-.24-.87-1.35-1.32-2.82-1.12-.17.03-.27-.04-.31-.21-.03-.17.03-.29.17-.33,1.26-.36,2.53-.71,3.79-1.05.16-.04.28.03.32.2,1.96,7.36,3.93,14.72,5.89,22.08.22-.06.44-.12.67-.18-1.94-7.37-3.88-14.73-5.82-22.1-.05-.17,0-.28.17-.33.41-.11.83-.22,1.24-.32.16-.04.28.03.32.2,1.88,7.38,3.77,14.76,5.65,22.14.58-.14,1.16-.28,1.74-.42.06,0,.12,0,.18-.01,0-.01,0-.02,0-.03-.06-.01-.13-.02-.19-.04-.78-.25-1.36-.84-1.56-1.64-1.52-6.04-3.04-12.08-4.57-18.13-.31-1.22.49-2.4,2.05-2.97.13-.03.28.07.32.21.03.14-.04.28-.16.3-1.28.47-1.95,1.41-1.72,2.34,1.51,6.05,3.02,12.09,4.53,18.14.25.99,1.28,1.54,2.63,1.43.15-.02.24.06.28.23.03.18-.03.27-.17.3-1.15.27-2.3.56-3.45.85-.15.04-.23-.02-.28-.2-1.9-7.38-3.8-14.76-5.7-22.14-.25.06-.5.13-.75.19,1.92,7.37,3.85,14.75,5.77,22.12.04.17-.01.27-.16.31-.37.1-.73.19-1.1.29-.15.04-.23-.02-.28-.19-1.98-7.36-3.96-14.72-5.94-22.08-.63.16-1.26.33-1.88.5-.07,0-.13.01-.2.02,0,.01,0,.02,0,.04.07,0,.14.02.21.02.83.2,1.42.71,1.62,1.43,1.64,6.01,3.28,12.02,4.91,18.03.36,1.32-.31,2.55-1.67,3.12-.12.03-.24-.05-.28-.19Z" stroke-width="0"/><path d="m637.85,90.33c-.49-2.45-.64-4.92-.36-7.22.01-.07.02-.15.03-.22,0,0,0,0-.01,0-.02.06-.05.13-.07.19-.66,1.56-1.03,4.51-.43,7.45.69,3.35,2.8,7.65,4.98,9.55.12.11.14.22.08.36,0,.01,0,.02,0,.03-.06.14-.16.19-.3.12-2.87-1.46-5.7-5.59-6.6-9.93-.79-3.69-.12-7.56,1.76-10.15.04-.06.08-.11.12-.17,0,0-.01,0-.02-.01-.05.04-.11.09-.16.13-2.47,2.07-3.5,6.03-2.57,10.28.79,3.65,2.95,7.44,5.07,9.12.13.09.15.2.11.36,0,0,0,.01-.01.02-.05.16-.14.21-.27.17-2.97-.93-5.62-4.57-6.71-9.36-1.65-7.12,1.55-12.93,8.02-14.07,4.43-.78,8.15,1.15,9.72,3.6.03.07.07.13.1.2,0,0,0-.01.01-.02-.01-.07-.03-.14-.04-.21-.15-1.07-.29-2.15-.44-3.22,0-.07.01-.14.02-.21,0,0-.02,0-.03,0-.03.06-.05.13-.08.19-.19.3-.46.49-.79.53-.27.04-.55-.02-.84-.16-.08-.04-.14-.11-.15-.21-.02-.14.07-.29.2-.31.04,0,.09,0,.14.03.21.1.4.14.58.11.37-.05.64-.43.74-1.08.02-.17.1-.26.25-.26,0,0,.02,0,.03,0,.15,0,.26.08.28.26.28,2.07.56,4.13.83,6.2.02.18-.05.28-.21.3-.16.02-.25-.06-.28-.22-.58-2.99-4.62-5.93-9.94-5-6.18,1.09-9.21,6.62-7.65,13.44.88,3.92,2.86,7.04,5.14,8.42.05.04.11.08.17.11,0,0,0-.01.01-.02-.05-.05-.09-.09-.14-.14-1.87-1.98-3.6-5.28-4.3-8.48-1.15-5.16.52-9.97,4.16-11.7.14-.06.24-.01.33.12,0,0,.01.02.02.03.07.15.06.27-.05.37-2.49,2.37-3.52,6.78-2.66,10.91.68,3.38,2.6,6.65,4.73,8.51.05.04.1.09.15.13,0,0,0-.01.01-.02-.04-.05-.09-.1-.13-.16-1.76-2.27-3.3-5.68-3.86-8.41-.76-3.68.01-7.57,1.03-8.75.1-.1.22-.11.34-.03.01,0,.02.02.04.03.12.08.17.18.14.33-.41,2.54-.31,5.28.23,8.03,1.3,6.46,4.4,10.22,7.86,9.64,3.36-.57,6.22-4.91,6.05-7.84,0-.16.05-.27.2-.29.15-.02.25.06.27.22.29,2.2.58,4.4.88,6.6.02.18-.05.28-.18.32,0,0-.02,0-.03,0-.13.03-.23-.03-.29-.19-.25-.6-.57-.9-.92-.85-.15.02-.3.11-.46.26-.04.04-.08.04-.12.05-.12.02-.23-.08-.25-.22-.01-.1.02-.18.08-.24.22-.21.45-.34.68-.37.3-.04.59.06.84.31.04.05.08.11.12.16,0,0,.02,0,.03,0-.02-.07-.05-.13-.07-.2-.16-1.22-.33-2.44-.49-3.66,0-.07,0-.14-.01-.21,0,0-.01,0-.02-.01,0,.07-.02.14-.03.22-.8,2.87-3.32,6.01-6.19,6.49-3.71.63-7.04-3.34-8.42-10.09Z" stroke-width="0"/><path d="m662.68,97.81c-.01-.14.06-.26.17-.27,1.18-.27,1.91-1.13,1.83-2.21-.49-6.21-.99-12.42-1.48-18.63-.07-.9-1.07-1.55-2.54-1.63-.17,0-.25-.09-.27-.27,0-.18.08-.28.23-.3,1.3-.12,2.6-.22,3.9-.32.17-.01.26.08.28.25.55,7.6,1.09,15.19,1.64,22.79.23-.02.45-.03.68-.05-.52-7.6-1.04-15.2-1.57-22.79-.01-.18.06-.28.22-.29.42-.03.85-.06,1.27-.08.17-.01.26.08.27.26.47,7.6.93,15.2,1.4,22.81.59-.03,1.18-.06,1.78-.08.06,0,.12.02.18.02,0-.01,0-.02.01-.03-.06-.02-.12-.05-.18-.07-.72-.4-1.17-1.08-1.22-1.9-.4-6.93-.8-13.86-1.21-20.78-.01-.18.06-.28.23-.29,3.16-.18,6.31-.3,9.47-.35.14,0,.23.08.28.22.46,1.36.9,2.72,1.34,4.08.05.16,0,.27-.14.34,0,0,0,.01-.01.02-.15.07-.25.02-.33-.13-.5-.85-1.58-1.91-2.78-2.7-.06-.05-.11-.13-.11-.22,0-.14.1-.28.23-.28.05,0,.11.03.14.05.76.51,1.5,1.13,2.04,1.75.04.05.08.11.12.16,0,0,.02-.01.03-.02-.03-.06-.06-.13-.09-.19-.28-.84-.57-1.69-.85-2.53-3.02.05-6.03.16-9.04.33.38,6.84.77,13.69,1.15,20.53.06,1.01.96,1.75,2.3,1.9.15,0,.22.1.23.28,0,.18-.08.26-.22.27-1.18.05-2.35.12-3.53.19-.15,0-.22-.07-.23-.24-.48-7.61-.96-15.21-1.45-22.82-.26.02-.51.03-.77.05.51,7.6,1.01,15.21,1.52,22.81.01.18-.06.26-.21.27-.38.03-.75.05-1.13.08-.15.01-.22-.06-.24-.24-.56-7.6-1.13-15.2-1.69-22.8-.64.04-1.29.09-1.93.13-.07,0-.13-.01-.2-.02,0,.01,0,.02-.01.03.07.02.14.04.2.06.77.36,1.26.97,1.31,1.71.48,6.21.96,12.42,1.44,18.64.1,1.37-.77,2.45-2.21,2.75-.12.01-.23-.09-.24-.24Zm12.43-8.26c-.24-1.49-1.03-2.85-2.05-3.54-.1-.08-.17-.17-.16-.32,0-.19.06-.28.19-.35.32-.17.68-.41.9-.65.04-.03.1-.07.16-.07.13,0,.25.12.25.27,0,.08-.04.16-.09.21-.21.22-.5.42-.8.59.62.49,1.16,1.2,1.53,2.03.02.07.04.14.06.21,0,0,0-.01.01-.02,0-.07-.01-.14-.02-.21-.06-1.86-.11-3.72-.17-5.57,0-.07,0-.14,0-.21,0,0-.01-.01-.02-.02-.02.07-.03.14-.05.21-.79,1.93-2.49,3.14-4.75,3.19-.13,0-.24-.1-.24-.25,0-.14.09-.28.22-.27,2.72-.09,4.57-1.93,4.73-4.76,0-.16.1-.26.26-.25.16,0,.25.09.26.25.09,3.15.18,6.3.27,9.45,0,.16-.08.26-.25.28-.14,0-.23-.07-.25-.23Z" stroke-width="0"/><path d="m681.95,96.96c0-.14.1-.27.22-.27,1.17-.14,1.98-.89,1.99-1.84.07-6.23.13-12.46.2-18.69.01-1.01-.93-1.82-2.38-2.03-.17-.02-.24-.11-.24-.29.01-.18.11-.27.26-.27,5.42,0,10.84.19,16.25.57.14,0,1.13.16,1.16.31.33,1.39.66,2.79.97,4.18.03.16-.02.27-.18.33,0,0-.01,0-.02.01-.15.05-.25,0-.32-.15-.42-.89-1.4-2.05-2.53-2.94-.06-.05-.1-.14-.09-.23,0-.14.12-.27.26-.26.05,0,.1.04.13.06.72.58,1.39,1.26,1.88,1.93.04.06.07.11.11.17.01,0,.02,0,.03-.01-.02-.07-.05-.13-.08-.2-.2-.87-.41-1.73-.62-2.6-5.09-.37-10.19-.58-15.29-.63-.07-.01-.13-.02-.2-.03,0,.01-.01.02-.02.03.07.03.13.05.2.08.77.46,1.21,1.17,1.2,1.99-.08,6.23-.16,12.46-.24,18.69-.01.74-.36,1.36-.94,1.78-.05.03-.11.06-.16.1,0,0,0,.01.01.02.06-.01.12-.02.18-.03.53,0,1.06,0,1.59,0,.12-7.19.23-14.37.35-21.56,0-.18.08-.27.24-.27.42,0,.83.02,1.25.02.17,0,.25.1.25.28-.17,7.18-.34,14.37-.51,21.55.23,0,.47.01.7.02.19-7.18.38-14.37.58-21.55,0-.18.08-.27.25-.27.12,0,.23,0,.35,0,.17,0,1.15.13,1.15.31-.22,6.57-.45,13.13-.67,19.7-.03,1.05.8,1.88,1.92,1.93,2.63.11,5.25.28,7.87.49.33-1.35.67-2.7,1.01-4.06.02-.07.05-.14.07-.2,0,0-.02,0-.03,0-.03.06-.07.11-.1.17-.72.94-1.75,1.86-2.94,2.59-.06.02-.11.05-.17.07,0,.01,0,.02.01.03.06,0,.12-.01.18-.02.45.03.9.05,1.35.08.12,0,.22.15.21.29-.01.14-.13.25-.25.24-.68-.05-1.37-.1-2.05-.15-.14,0-.21-.08-.24-.24,0-.01,0-.02,0-.03-.03-.16.06-.29.25-.4,1.88-1.07,3.45-2.6,4.05-3.96.07-.16.16-.21.31-.15,0,0,0,0,.01,0,.14.06.18.16.14.34-.48,1.92-.96,3.83-1.43,5.75-.03.16-.11.22-.25.21-2.67-.22-5.35-.38-8.03-.5-1.36-.06-2.39-1.14-2.35-2.47.21-6.48.41-12.96.62-19.44-.25,0-.5-.02-.75-.02-.21,7.19-.41,14.38-.62,21.57,0,.18-.09.26-.24.25-.38-.01-.76-.02-1.14-.03-.15,0-.22-.09-.21-.26.15-7.19.31-14.38.46-21.57-.25,0-.5-.01-.75-.01-.13,7.19-.26,14.38-.39,21.57,0,.18-.09.26-.24.25-1.11-.02-2.22-.03-3.33-.03-.12,0-.22-.11-.22-.26Zm13.12-7.1c-.11-1.51-.77-2.94-1.72-3.71-.1-.09-.15-.19-.13-.33.02-.19.07-.27.22-.33.34-.14.71-.37.97-.56.05-.03.09-.06.15-.06.13,0,.24.14.23.29,0,.08-.05.16-.11.2-.24.18-.55.37-.85.52.58.53,1.05,1.3,1.34,2.16.01.07.03.14.04.21,0,0,0-.01.01-.02,0-.07,0-.14,0-.21.11-1.86.22-3.71.33-5.57,0-.07.02-.14.03-.21,0,0,0-.01-.01-.02-.02.07-.05.14-.07.21-.96,1.85-2.76,2.91-5.01,2.76-.13,0-.23-.12-.22-.27,0-.14.11-.27.24-.25,2.72.15,4.72-1.51,5.13-4.31.02-.16.12-.25.28-.23.16,0,.24.11.23.27-.2,3.15-.39,6.29-.59,9.44,0,.16-.1.25-.27.26-.14,0-.22-.09-.23-.26Z" stroke-width="0"/><path d="m704.59,93.5c-.01-.07-.02-.14-.03-.21,0,0-.01,0-.02.01,0,.07,0,.14,0,.21-.13,1.2-.25,2.4-.38,3.61-.02.07-.03.14-.05.21,0,0,0,.01.01.02.03-.06.07-.12.1-.18.16-.18.34-.37.54-.54.05-.04.1-.07.16-.06.12.01.22.15.2.3,0,.08-.06.14-.1.18-.38.33-.66.66-.88,1.01-.11.17-.23.14-.34.09-.13-.05-.18-.15-.16-.31.25-2.45.5-4.89.75-7.34.02-.16.1-.25.25-.23.16.02.22.12.21.28-.35,4.57,2.09,7.8,6.21,8.36,3.94.54,7.17-1.68,7.85-5.56.72-4.15-2.39-6.42-5.34-8.44-2.06-1.4-4.03-2.7-4.3-4.57,0-.07-.01-.14-.02-.21,0,0,0,0-.01,0-.01.07-.03.14-.04.21-.78,2.13,1.77,3.71,3.93,5.18,2.74,1.87,5.79,4.09,5.19,7.64-.39,2.27-2.06,4.23-3.82,4.55-.17.04-.23-.12-.26-.23-.03-.15.01-.26.14-.34,1.04-.69,2.13-2.46,2.37-3.97.44-2.69-1.95-4.4-4.51-6.1-2.47-1.65-5.1-3.31-4.8-6.11.12-1.04.64-2.13,1.4-2.99.05-.05.09-.1.14-.15,0,0,0-.01-.01-.02-.05.04-.11.07-.16.11-1.16.73-1.92,1.91-2.07,3.26-.3,2.87,2.41,4.62,5.04,6.43,2.37,1.63,4.69,3.32,4.31,5.69-.09.57-.36,1.18-.75,1.81-.09.13-.19.17-.33.1-.16-.09-.2-.16-.18-.34.39-2.65-1.79-4.25-4.29-5.96-2.76-1.91-5.87-3.9-5.48-7.91.36-3.75,3.63-6.13,7.91-5.57,3.39.45,5.68,2.5,6.28,5.29,0,.07.02.14.03.22,0,0,.01,0,.02-.01,0-.07.01-.14.02-.21.17-1.02.33-2.04.5-3.05.03-.07.05-.13.08-.2,0,0-.01,0-.02,0-.05.05-.1.09-.14.14-.22.13-.45.25-.75.39-.05.02-.09.02-.14.01-.13-.02-.22-.15-.2-.29.01-.1.08-.18.16-.2.44-.19.76-.37,1.03-.57.12-.09.22-.11.34-.04.17.11.23.18.2.36-.34,2.05-.67,4.09-1.01,6.14-.03.17-.13.26-.29.23-.16-.03-.22-.13-.21-.29.52-3.81-1.84-6.81-5.96-7.36-4-.52-7.02,1.65-7.36,5.09-.37,3.65,2.49,5.5,5.25,7.41,2.25,1.52,4.44,3.11,4.54,5.57,0,.07-.01.14-.02.21,0,0,0,0,.01,0,.02-.07.05-.13.07-.2.1-.29.19-.56.23-.81.32-2.04-1.75-3.54-4.12-5.16-2.61-1.81-5.59-3.73-5.26-6.94.21-2.03,1.71-3.73,3.8-4.26.16-.03.25.03.31.18.05.19.02.3-.12.39-1.23.74-2.16,2.21-2.31,3.57-.27,2.47,2.09,3.94,4.56,5.6,2.56,1.71,5.22,3.59,4.72,6.63-.19,1.19-.88,2.55-1.7,3.48-.05.05-.09.09-.14.14,0,0,0,.01.01.02.05-.04.1-.07.16-.11,1.11-.72,2.07-2.13,2.32-3.69.54-3.21-2.26-5.24-4.98-7.11-2.27-1.55-4.53-3.01-4.28-5.14.06-.5.25-.98.59-1.46.12-.16.26-.13.38-.07.13.08.18.15.16.26-.24,1.98,1.77,3.29,4.11,4.89,2.98,2,6.34,4.48,5.55,8.97-.74,4.18-4.21,6.6-8.38,6.02-3.4-.47-5.72-2.69-6.4-5.93Z" stroke-width="0"/><path d="m723.66,82.53c.73-1.74,1.47-3.48,2.22-5.21.06-.15.15-.23.3-.21.02,0,.03,0,.05,0,.15.03.22.07.29.2.17.33.51.56.92.64,1.36.27,2.72.54,4.08.83.13.03.23.18.2.32-.03.14-.17.23-.31.2-1.36-.29-2.71-.57-4.07-.83-.45-.09-.86-.33-1.12-.68-.51,1.17-1.02,2.33-1.52,3.5-.03.07-.06.13-.1.2,0,0,.01,0,.02,0,.04-.05.09-.1.13-.16.68-.63,1.56-1.18,2.55-1.6.07-.02.13-.04.2-.06,0,0,0-.01-.01-.02-.07,0-.13,0-.2,0-.26-.04-.52-.09-.77-.13-.13-.03-.22-.16-.19-.3.03-.14.16-.25.29-.22.52.1,1.04.2,1.56.31.15.03.17.13.22.29,0,.01,0,.02,0,.03.05.16-.07.27-.2.32-1.75.72-3.42,1.67-4.08,2.81-.11.19-.24.15-.35.1-.14-.07-.16-.19-.1-.35Zm1.45,18.83c.03-.14.13-.22.25-.21,1.35.1,2.41-.49,2.64-1.53,1.48-6.78,2.96-13.56,4.44-20.34.04-.17.13-.25.3-.22.42.09.83.18,1.25.28.16.04.23.15.19.32-1.68,7.43-3.36,14.86-5.04,22.29.22.05.45.1.67.15,1.7-7.42,3.4-14.85,5.11-22.27.04-.17.14-.25.3-.21.42.1.83.19,1.25.29.16.04.23.15.19.33-1.76,7.41-3.52,14.82-5.27,22.23.61.15,1.23.3,1.84.46.06.02.11.04.17.06,0,0,.01,0,.02-.01-.05-.04-.11-.07-.16-.11-.64-.62-.92-1.42-.73-2.22,1.62-6.75,3.25-13.49,4.87-20.24.04-.17.14-.25.3-.21,1.77.43,3.54.88,5.3,1.35.4.11.81.05,1.11-.17.12-.09.2-.1.35-.06.01,0,.03,0,.04.01.15.04.2.15.18.32-.08,1.89-.18,3.77-.28,5.66-.01.21-.13.26-.26.26-.16,0-.24-.07-.26-.24-.1-1.3-1.13-2.97-2.45-4.31-.11-.11-.13-.23-.06-.38.08-.18.19-.23.35-.19.51.13,1.03.27,1.54.41.13.04.22.19.18.33-.04.14-.18.22-.32.18-.25-.07-.5-.15-.76-.22-.06-.03-.12-.05-.18-.08,0,0-.01,0-.02.01.05.05.1.09.15.14.71.8,1.28,1.7,1.62,2.56.02.07.04.13.05.2,0,0,.01,0,.02,0,0-.07,0-.15,0-.22.06-1.27.12-2.54.17-3.81-.39.2-.87.23-1.31.12-1.68-.45-3.36-.87-5.04-1.28-1.62,6.66-3.23,13.32-4.85,19.98-.24.99.52,2.03,1.94,2.56.14.05.2.17.14.34-.06.17-.16.24-.29.21-1.24-.32-2.48-.62-3.73-.91-.15-.03-.19-.14-.15-.32,1.74-7.42,3.49-14.84,5.23-22.26-.25-.06-.5-.12-.75-.18-1.72,7.43-3.44,14.85-5.16,22.28-.04.17-.14.25-.29.21-.37-.09-.74-.17-1.11-.25-.15-.03-.19-.14-.15-.32,1.66-7.44,3.33-14.88,4.99-22.31-.25-.06-.5-.11-.76-.17-1.47,6.69-2.95,13.39-4.42,20.08-.3,1.34-1.59,2.29-3.18,1.96-.12-.03-.19-.17-.16-.31Z" stroke-width="0"/><path d="m741.41,105.39c.04-.14.15-.22.26-.19,1.21.18,2.21-.36,2.52-1.39,1.79-5.97,3.59-11.93,5.38-17.9.26-.86-.45-1.84-1.8-2.44-.16-.06-.2-.18-.15-.35.06-.17.18-.23.33-.19,1.26.36,2.52.74,3.78,1.13.16.05.22.17.17.34-2.25,7.28-4.49,14.56-6.74,21.83.22.07.44.14.66.2,2.27-7.27,4.54-14.54,6.81-21.81.05-.17.15-.24.31-.19.41.13.82.26,1.23.39.16.05.22.17.16.34-2.32,7.25-4.65,14.51-6.97,21.76.57.19,1.14.38,1.7.57.05.03.11.06.16.09,0,0,.02-.02.02-.03-.05-.04-.1-.09-.14-.13-.53-.63-.71-1.44-.46-2.22,1.92-5.93,3.84-11.85,5.76-17.78.39-1.2,1.7-1.77,3.33-1.43.13.04.21.21.16.34-.05.14-.18.21-.3.17-1.34-.28-2.41.15-2.71,1.07-1.93,5.92-3.87,11.85-5.8,17.77-.31.97.27,1.98,1.47,2.61.14.06.17.18.12.35-.07.16-.17.21-.31.17-1.13-.38-2.26-.75-3.39-1.11-.14-.05-.18-.14-.13-.31,2.31-7.26,4.62-14.53,6.93-21.79-.25-.08-.5-.16-.74-.23-2.29,7.27-4.57,14.54-6.86,21.81-.05.17-.16.22-.3.18-.36-.11-.73-.23-1.09-.34-.14-.04-.19-.14-.13-.31,2.23-7.29,4.46-14.58,6.7-21.86-.62-.2-1.24-.39-1.86-.58-.06-.03-.12-.06-.18-.09,0,0-.02.02-.02.03.06.04.11.09.17.13.6.61.83,1.36.62,2.07-1.81,5.96-3.61,11.93-5.42,17.89-.4,1.31-1.62,2-3.08,1.76-.12-.03-.18-.17-.14-.31Z" stroke-width="0"/><path d="m761.47,112.35c.13-7.13.03-14.31-.31-21.52-.08-1.71-.65-3.19-1.44-3.6-.1-.05-.16-.19-.12-.31.05-.15.2-.24.37-.14.94.52,1.61,2.12,1.68,4,.31,7.07.4,14.1.27,21.09-.02.07-.04.14-.05.2,0,0,.02,0,.03.01.03-.06.07-.12.1-.18.21-.24.41-.48.62-.72.13-7.71,0-15.48-.41-23.28,0-.21.11-.3.3-.24.43.16.87.31,1.3.47.13.05.19.14.2.3.31,6.97.4,13.9.28,20.8-.02.07-.04.14-.05.2,0,0,.02,0,.03.01.03-.06.07-.12.1-.18.21-.24.42-.48.63-.72.12-6.53.05-13.11-.22-19.71,0-.21.11-.3.3-.23,1.57.59,3.13,1.19,4.69,1.81.14.06.21.19.14.35-.07.16-.19.22-.35.17-1.62-.47-2.63-.34-2.9.35-.05.14-.09.31-.08.5.14,4.95.16,9.89.08,14.8-.02.07-.04.14-.05.2,0,0,.02,0,.03.01.04-.06.07-.12.11-.18,2.99-3.27,6.05-6.49,9.18-9.66.99-1.01,2.33-1.65,3.62-1.76.07,0,.14,0,.22,0,0-.01,0-.02,0-.04-.07-.02-.13-.04-.2-.05-1.39-.63-2.78-1.24-4.17-1.84-.06-.04-.11-.07-.17-.11,0,0-.02.02-.03.02.05.05.09.1.14.15.4.59.57,1.32.47,2.05.27-.25.57-.44.89-.63.07-.04.16-.05.23-.02.13.06.19.22.13.36-.03.06-.07.09-.12.12-.48.32-.88.63-1.27,1.04-.12.12-.24.18-.36.07-.01-.01-.02-.02-.04-.03-.12-.11-.15-.19-.1-.34.42-1.27.04-2.57-1.19-3.22-.15-.08-.2-.21-.11-.36.08-.16.21-.21.35-.15,2.32.98,4.63,2,6.92,3.05.14.06.2.2.12.36,0,0,0,0,0,.01-.07.15-.18.2-.33.17-1.48-.34-3.37.23-4.64,1.51-3.31,3.33-6.53,6.72-9.68,10.16-.06.08-.17.1-.26.07-.09-.04-.13-.13-.14-.23.08-5.14.04-10.3-.12-15.48,0-.28.04-.52.12-.73.21-.54.66-.87,1.33-.94.07,0,.14,0,.21,0,0-.01,0-.02,0-.04-.07-.01-.13-.03-.2-.04-.74-.28-1.48-.56-2.23-.83.24,6.46.29,12.89.16,19.29,0,.14-.05.22-.14.33-.38.41-.75.83-1.12,1.25-.06.08-.17.11-.26.07-.09-.04-.13-.12-.13-.23.13-7.08.02-14.21-.31-21.37-.25-.09-.51-.19-.76-.28.38,7.66.49,15.29.35,22.87,0,.14-.05.22-.13.33-.32.36-.64.71-.96,1.07-.14.15-.25.13-.37.08-.12-.05-.17-.14-.17-.29Z" stroke-width="0"/><path d="m769.59,115.71c.07-.15.17-.21.31-.18,1.19.2,3.45-1,5.46-2.91,2.57-2.47,5.18-4.9,7.85-7.29.2-.17.44-.52.67-.98.21-.43.39-.92.55-1.42.05-.17.15-.23.31-.21.18.02.26.09.23.28-.37,5.39-.87,10.75-1.5,16.07-.06.44-.17.84-.34,1.17-.31.58-.78.95-1.34,1.06-.06,0-.13,0-.19,0,0,0,0,.01,0,.02.06.02.12.04.18.06.67.35,1.35.7,2.02,1.06.86-6.68,1.52-13.43,1.98-20.23.02-.14.07-.24.21-.31.41-.24.83-.47,1.25-.71.08-.05.17-.06.25-.02.1.05.14.16.13.26-.51,7.35-1.25,14.65-2.24,21.86.22.12.44.25.67.37,1.06-7.58,1.85-15.25,2.39-22.99,0-.14.05-.24.18-.32.34-.25.69-.49,1.04-.74.11-.09.23-.1.35-.04.19.1.24.18.22.35-.54,7.52-1.33,14.98-2.36,22.36-.17,1.14.08,2.25.6,2.77.09.07.11.21.04.32-.07.13-.23.17-.34.1-.67-.38-.95-2.1-.79-3.2,1.01-7.25,1.79-14.57,2.32-21.96.02-.07.04-.13.07-.2,0,0,0,0-.01,0-.05.06-.09.11-.14.17-.23.16-.45.32-.68.48-.55,7.85-1.38,15.64-2.47,23.33,0,.04-.01.08-.03.11-.07.13-.22.17-.35.1-.35-.2-.7-.39-1.06-.59-.11-.06-.16-.14-.14-.3.96-7.08,1.7-14.23,2.21-21.44.02-.07.04-.13.07-.2,0,0,0,0-.01,0-.05.05-.1.11-.15.16-.23.14-.47.27-.7.41-.48,6.9-1.17,13.75-2.07,20.53,0,.03-.01.08-.03.11-.07.13-.22.17-.35.11-1.16-.63-2.32-1.24-3.48-1.85-.12-.06-.15-.19-.08-.37.07-.14.18-.2.33-.14.96.32,1.71.06,2.11-.69.14-.26.23-.59.27-.95.56-4.81,1.02-9.65,1.38-14.51l.04-.21s-.01,0-.02,0c-.03.06-.05.13-.08.19-.27.58-.53.98-.79,1.19-2.67,2.39-5.29,4.82-7.86,7.28-1.62,1.55-3.41,2.63-4.76,2.94-.06,0-.13.01-.19.02,0,0,0,.01,0,.02.06.02.12.03.18.05,1.27.58,2.54,1.18,3.81,1.78.05.04.1.07.15.11,0,0,.01,0,.02,0-.04-.05-.07-.11-.11-.16-.33-.66-.38-1.51-.16-2.38-.57.44-1.05.75-1.47.93-.06.03-.13.01-.18-.01-.11-.05-.16-.2-.09-.33.03-.07.07-.13.14-.15.46-.19,1.04-.6,1.79-1.22.13-.1.24-.1.35-.01,0,0,.01.02.02.03.11.09.12.2.07.35-.59,1.41-.3,2.76.72,3.46.09.06.13.21.08.32-.06.13-.21.18-.34.12-1.99-.97-3.99-1.91-6-2.81-.16-.07-.15-.21-.1-.35Zm8.63-4.14c.06-.13.21-.2.33-.15,1.43.69,2.85,1.4,4.27,2.12.12.06.16.23.1.36-.07.13-.22.18-.34.12-1.41-.72-2.83-1.43-4.26-2.12-.12-.06-.16-.2-.1-.33Z" stroke-width="0"/><path d="m789.2,125.78c.09-.15.2-.2.34-.14,1.28.5,2.41.34,2.88-.44,3.18-5.36,6.36-10.71,9.55-16.07.55-.93.19-2.08-.92-2.92-.11-.06-.13-.21-.06-.33.07-.13.23-.18.35-.11,1.34,1,1.77,2.45,1.07,3.62-3.19,5.35-6.39,10.7-9.58,16.05-.38.64-1.06.98-1.87.97-.07,0-.13-.02-.2-.02,0,.01,0,.02,0,.03.06.02.12.04.18.07.52.3,1.04.61,1.56.91,3.93-6.53,7.85-13.05,11.78-19.58.09-.15.21-.19.36-.11.37.22.74.45,1.11.68.15.09.18.22.08.37-3.98,6.5-7.95,12.99-11.93,19.49.21.13.41.25.62.38,4-6.48,8-12.96,11.99-19.45.09-.15.21-.19.36-.1,1.23.76,2.45,1.53,3.67,2.32.13.08.16.22.08.37-.1.15-.21.19-.37.11-1.54-.74-2.88-.65-3.42.21-3.31,5.28-6.62,10.56-9.93,15.83-.59.94-.3,2,.76,2.67,2.2,1.41,4.38,2.86,6.54,4.36.99-1.06,1.98-2.11,2.98-3.17.06-.05.11-.09.17-.14,0,0-.02-.01-.02-.02-.06.03-.12.06-.17.1-1.16.47-2.62.77-4.11.79-.07,0-.13-.01-.2-.02,0,0,0,.01,0,.02.06.03.12.05.17.08.45.3.89.59,1.34.89.11.07.13.25.05.36-.08.12-.24.15-.35.07-.64-.44-1.29-.88-1.93-1.32-.12-.08-.15-.18-.1-.34,0,0,.01-.02.02-.03.05-.16.19-.22.42-.22,2.26.03,4.5-.51,5.75-1.41.14-.1.25-.1.34.02,0,0,.02.01.02.02.1.11.09.24-.02.36-1.4,1.47-2.79,2.94-4.17,4.42-.1.12-.22.14-.34.06-2.2-1.53-4.43-3.02-6.67-4.46-1.26-.81-1.63-2.15-.87-3.37,3.3-5.28,6.6-10.57,9.9-15.85.43-.7,1.23-1.04,2.22-.95.07.01.14.03.21.04,0,0,0-.01,0-.02-.06-.03-.12-.06-.18-.1-.61-.38-1.22-.75-1.83-1.13-4.02,6.48-8.03,12.96-12.05,19.43-.09.15-.21.17-.34.09-.34-.21-.67-.42-1.01-.62-.13-.08-.15-.19-.06-.34,3.97-6.51,7.93-13.02,11.89-19.53-.22-.14-.45-.27-.67-.41-3.94,6.52-7.89,13.04-11.83,19.57-.09.15-.21.18-.34.1-1.04-.63-2.08-1.25-3.13-1.85-.12-.07-.16-.18-.08-.34Z" stroke-width="0"/></g><circle cx="467.19" cy="221.6" r="2.95" fill="#fff" stroke-width="0"/><circle cx="482.92" cy="195.36" r="3.92" fill="#fff" stroke-width="0"/><circle cx="456.95" cy="250.03" r="3.92" fill="#fff" stroke-width="0"/><circle cx="497.69" cy="174.92" r="2.95" fill="#fff" stroke-width="0"/><circle cx="449.93" cy="275.47" r="2.95" fill="#fff" stroke-width="0"/><circle cx="896.16" cy="220.32" r="2.95" fill="#fff" stroke-width="0"/><circle cx="880.44" cy="194.07" r="3.92" fill="#fff" stroke-width="0"/><circle cx="906.4" cy="248.74" r="3.92" fill="#fff" stroke-width="0"/><circle cx="865.66" cy="173.63" r="2.95" fill="#fff" stroke-width="0"/><circle cx="913.42" cy="274.19" r="2.95" fill="#fff" stroke-width="0"/><path d="m1207.02,441.27c.76,6.26-.3,8.09-1.36,8.64-1.32.68-2.74-.42-8.19-2.76-3.35-1.44-5.45-2.34-8.06-2.21-2.97.15-6.21,1.62-8.32,4.24-3.5,4.34-2.34,9.89-2,11.5.96,4.6,3.04,4.94,7.53,12.51,3.06,5.16,5.23,8.9,5.51,13.84.22,3.97-.89,6.67-2.04,10.06,0,0-3.06,8.95-5.3,22.43-1.64,9.88.34,23.97,9.04,34.24,10.82,12.77,27.1,13.8,34.08,14.24,16.43,1.04,28.88-5.31,34.58-8.83,6.78-4.19,20.91-12.91,23.77-29.3.29-1.66,2.67-16.5-5.61-26.9-2.44-3.06-5.21-5-13.13-14.12-3.19-3.67-4.9-5.85-5.6-9.17-.77-3.69.6-4.57,1.11-11.59.42-5.69.86-11.3-2.28-13.71-.3-.23-1.48-1.09-3.07-1.1-2.52-.02-4.51,2.3-5.42,3.34-.55.63-.9,1.15-1.01,1.32-3.05,4.57-5.78,8.66-9.29,9.48-3.25.76-6.33-1.5-7.51-2.34-3.66-2.59-4.94-6.32-5.36-7.78-19.32-78.62-33.34-136.09-34.18-140.05-.37-1.73-.34-3.12.15-4.39.89-2.33,2.6-2.48,3.38-4.26,1.07-2.47-.74-5.47-2.99-9.19-2.84-4.71-4.53-5.2-5.53-8.9-.31-1.15-.78-2.97-.32-5.16.48-2.24,1.48-2.63,1.66-4.16.34-2.86-2.52-6.75-6.05-7.33-3.96-.65-8.63,2.9-9.09,8.49-.64,9.45-1.27,18.89-1.91,28.34-.6,2.54-.11,3.83.46,4.54,1.38,1.71,3.88.89,5.86,2.72,1.39,1.28,1.62,3.06,1.78,3.95.76,4.34,10.82,52.66,24.72,119.38Z" fill="#fff" stroke-width="0"/><line x1="1179.07" y1="281.83" x2="1172.74" y2="281.96" fill="none" stroke="#fff" stroke-miterlimit="10"/><line x1="1179.24" y1="290.27" x2="1172.91" y2="290.41" fill="none" stroke="#fff" stroke-miterlimit="10"/><line x1="1178.67" y1="298.29" x2="1172.33" y2="298.43" fill="none" stroke="#fff" stroke-miterlimit="10"/><line x1="1177.5" y1="307.05" x2="1171.17" y2="307.18" fill="none" stroke="#fff" stroke-miterlimit="10"/><line x1="1193.15" y1="290.02" x2="1187.46" y2="292.78" fill="none" stroke="#fff" stroke-miterlimit="10"/><line x1="1198.2" y1="297.37" x2="1192.51" y2="300.13" fill="none" stroke="#fff" stroke-miterlimit="10"/><ellipse cx="1172.84" cy="281.54" rx="2.71" ry="1.18" transform="translate(786.54 1424.17) rotate(-84.82)" fill="#fff" stroke="#fff" stroke-miterlimit="10"/><ellipse cx="1172.06" cy="290.12" rx="2.71" ry="1.18" transform="translate(777.29 1431.2) rotate(-84.82)" fill="#fff" stroke="#fff" stroke-miterlimit="10"/><ellipse cx="1171.82" cy="298.33" rx="2.71" ry="1.18" transform="translate(768.89 1438.42) rotate(-84.82)" fill="#fff" stroke="#fff" stroke-miterlimit="10"/><ellipse cx="1171.02" cy="307.18" rx="2.71" ry="1.18" transform="translate(759.35 1445.67) rotate(-84.82)" fill="#fff" stroke="#fff" stroke-miterlimit="10"/><ellipse cx="1193.81" cy="288.99" rx="1.18" ry="2.71" transform="translate(-6.24 550.88) rotate(-25.92)" fill="#fff" stroke="#fff" stroke-miterlimit="10"/><ellipse cx="1198.48" cy="297.23" rx="1.18" ry="2.71" transform="translate(-9.37 553.75) rotate(-25.92)" fill="#fff" stroke="#fff" stroke-miterlimit="10"/><path d="m1214.49,817.56c-73.48-10.72-125.91-50.77-130.33-94.71-2.84-28.24,14.7-52.69,15.49-53.76,28.63-38.85,74.65-22.69,110.2-64.83,7.78-9.22,23.93-28.36,20.1-49.08-6.07-32.91-51.73-36.12-73.43-66.85-16.56-23.45-22.36-68.23,26.63-162.04" fill="none" stroke="#fff" stroke-miterlimit="10"/><path d="m1222.3,817.56c-73.48-10.72-125.91-50.77-130.33-94.71-2.84-28.24,14.7-52.69,15.49-53.76,28.63-38.85,74.65-22.69,110.2-64.83,7.78-9.22,23.93-28.36,20.1-49.08-6.03-32.68-51.07-35.98-73.43-66.85-16.71-23.07-24.09-66.87,19.61-158.17" fill="none" stroke="#fff" stroke-miterlimit="10"/><path d="m1231.22,817.56c-73.48-10.72-125.91-50.77-130.33-94.71-2.84-28.24,14.7-52.69,15.49-53.76,28.63-38.85,74.65-22.69,110.2-64.83,7.78-9.22,23.93-28.36,20.1-49.08-5.99-32.45-50.32-35.92-73.43-66.85-16.97-22.71-26.04-65.68,12.46-154.94" fill="none" stroke="#fff" stroke-miterlimit="10"/><line x1="1188.97" y1="670.68" x2="1110.45" y2="625.12" fill="none" stroke="#fff" stroke-miterlimit="10"/><ellipse cx="1190.18" cy="671.38" rx="1.42" ry="2.6" transform="translate(12.17 1363.9) rotate(-59.88)" fill="#fff" stroke-width="0"/><line x1="1193.91" y1="665.22" x2="1145.95" y2="611.03" fill="none" stroke="#fff" stroke-miterlimit="10"/><ellipse cx="1195.06" cy="666.51" rx="1.42" ry="2.6" transform="translate(-141.56 959.51) rotate(-41.51)" fill="#fff" stroke-width="0"/><ellipse cx="1224.07" cy="727.98" rx="46.64" ry="11.14" transform="translate(-40.22 72.34) rotate(-3.33)" fill="#fff" stroke="#f2f2f2" stroke-miterlimit="10" stroke-width="2"/><rect x="1177.36" y="685.49" width="90.82" height="42.52" transform="translate(-38.99 72.23) rotate(-3.33)" fill="#fff" stroke-width="0"/><ellipse cx="1221.6" cy="685.53" rx="46.64" ry="11.14" transform="translate(-37.76 72.13) rotate(-3.33)" fill="#fff" stroke="#f2f2f2" stroke-miterlimit="10" stroke-width="3"/><path d="m1185.69,736.4c-.89-14.17-1.79-28.34-2.68-42.52" fill="#fff" stroke="#f2f2f2" stroke-miterlimit="10"/><path d="m1197.02,738.86c-.89-14.17-1.79-28.34-2.68-42.52" fill="#fff" stroke="#f2f2f2" stroke-miterlimit="10"/><path d="m1208.35,740.13c-.89-14.17-1.79-28.34-2.68-42.52" fill="#fff" stroke="#f2f2f2" stroke-miterlimit="10"/><path d="m1220.18,738.86c-.89-14.17-1.79-28.34-2.68-42.52" fill="#fff" stroke="#f2f2f2" stroke-miterlimit="10"/><path d="m1232.26,738.86c-.89-14.17-1.79-28.34-2.68-42.52" fill="#fff" stroke="#f2f2f2" stroke-miterlimit="10"/><path d="m1243.46,737.03c-.89-14.17-1.79-28.34-2.68-42.52" fill="#fff" stroke="#f2f2f2" stroke-miterlimit="10"/><path d="m1254.72,735.21c-.89-14.17-1.79-28.34-2.68-42.52" fill="#fff" stroke="#f2f2f2" stroke-miterlimit="10"/><path d="m1265.73,730.92c-.89-14.17-1.79-28.34-2.68-42.52" fill="#fff" stroke="#f2f2f2" stroke-miterlimit="10"/><rect x="1221.82" y="528.21" width="30.55" height="5.92" rx="2.52" ry="2.52" transform="translate(-92.43 319.25) rotate(-14.18)" fill="#f2f2f2" stroke="#fff" stroke-miterlimit="10"/><path d="m231.31,396.57c-4.57,7.92-5.93,15.69-3.04,17.36,2.89,1.67,8.94-3.39,13.51-11.31,4.57-7.92,5.93-15.69,3.04-17.36-2.89-1.67-8.94,3.39-13.51,11.31Z" fill="#fff" stroke-width="0"/><path d="m160.03,356.89c-9.75-6.04-19.48-12.08-29.23-18.12.44-.64.86-1.28,1.3-1.91,47.91,27.64,83.32,47.02,89.59,49.44,5.67,2.18,9.36,1.56,9.36,1.56,1.5-.37,4.04-.99,7.2-1.83,3.6-.95,3.92-1.1,4.25-.86,3.17,2.34-11.21,29.34-15.02,28.01-1.09-.38-1.71-3.24-2.2-5.44-.44-2.03-.14-2.13-.52-3.88-.28-1.28-1.08-4.65-3.92-7.27-1.18-1.09-2.37-1.71-3.15-2.05-.16.82-.45,1.96-1.03,3.22-.82,1.77-1.83,3.98-4.08,5.03-2.75,1.28-5.62.03-6.25-.27-6.11-3.57-12.2-7.15-18.3-10.72h-.01c-1.22-.71-2.42-1.42-3.64-2.14-1.01-.58-2-1.16-3-1.74-1.22-.72-2.45-1.45-3.67-2.15-.99-.58-1.98-1.16-2.98-1.74-1.23-.72-2.45-1.45-3.68-2.15-4.63-2.72-9.25-5.43-13.88-8.13-.76-.57-3.03-2.39-3.73-5.55-.06-.27-.35-1.66-.08-3.29.79-4.93,5.91-7.61,6.67-7.99Zm46.88,41.85c.48.18,1.23.4,2.13.3,1.83-.18,4.01-1.62,4.42-4.08.31-1.79-.4-3.66-1.8-4.87-5.38-3.19-10.77-6.39-16.15-9.59-1.83,2.69-3.64,5.38-5.47,8.06,5.62,3.4,11.25,6.8,16.87,10.19Zm-20.78-12.25l5.7-8.64-2.66-1.76-5.68,8.64,2.65,1.76Zm-6.36-3.75l5.61-8.53-2.65-1.74-5.61,8.53,2.65,1.74Zm-22.5-14.32c.35.82.89,1.37,1.29,1.7,4.89,2.82,9.78,5.64,14.68,8.44,1.84-2.82,3.68-5.65,5.53-8.47-5-2.76-10-5.54-15-8.3-1.73-.64-3.7-.35-5.1.78-1.93,1.56-2.11,4.17-1.39,5.85Z" fill="#fff" stroke-width="0"/><ellipse cx="186.36" cy="390.44" rx="3.58" ry="2.14" transform="translate(-244.95 356.61) rotate(-60)" fill="#fff" stroke-width="0"/><ellipse cx="179.68" cy="386.59" rx="3.58" ry="2.14" transform="translate(-244.95 348.9) rotate(-60)" fill="#fff" stroke-width="0"/><ellipse cx="173.01" cy="382.73" rx="3.58" ry="2.14" transform="translate(-244.95 341.19) rotate(-60)" fill="#fff" stroke-width="0"/><ellipse cx="129.63" cy="336.52" rx="2.34" ry="1.32" transform="translate(-226.62 280.52) rotate(-60)" fill="#fff" stroke-width="0"/><path d="m128.98,338.29l5.71,2.9c.35-.74.7-1.48,1.05-2.23-1.62-1.23-3.25-2.47-4.87-3.7-.63,1.01-1.26,2.02-1.89,3.03Z" fill="#fff" stroke-width="0"/><ellipse cx="199.81" cy="369.39" rx="1.57" ry="2.72" transform="translate(-220 357.73) rotate(-60)" fill="#fff" stroke-width="0"/><ellipse cx="193.37" cy="365.85" rx="1.57" ry="2.72" transform="translate(-220.15 350.39) rotate(-60)" fill="#fff" stroke-width="0"/><ellipse cx="186.63" cy="361.96" rx="1.57" ry="2.72" transform="translate(-220.15 342.61) rotate(-60)" fill="#fff" stroke-width="0"/><path d="m200.53,371.12l-2.59-1.73c-1.49,1.8-2.98,3.61-4.47,5.41,1.36.84,2.72,1.68,4.08,2.52.99-2.07,1.99-4.13,2.98-6.2Z" fill="#fff" stroke-width="0"/><path d="m194.22,367.15l-2.59-1.73c-1.49,1.8-2.98,3.61-4.47,5.41,1.36.84,2.72,1.68,4.08,2.52.99-2.07,1.99-4.13,2.98-6.2Z" fill="#fff" stroke-width="0"/><path d="m187.55,363.43l-2.59-1.73c-1.49,1.8-2.98,3.61-4.47,5.41,1.36.84,2.72,1.68,4.08,2.52.99-2.07,1.99-4.13,2.98-6.2Z" fill="#fff" stroke-width="0"/><rect x="167.3" y="678.06" width="47.03" height="10.9" transform="translate(438.07 18.34) rotate(35.99)" fill="#fff" stroke-width="0"/><rect x="175.95" y="666.14" width="47.03" height="10.9" transform="translate(432.72 10.97) rotate(35.99)" fill="#fff" stroke-width="0"/><rect x="173.24" y="670.03" width="35.88" height="6.95" transform="translate(432.27 16.21) rotate(35.99)" fill="#e6e6e6" stroke-width="0"/><rect x="184.02" y="655.04" width="47.03" height="10.9" transform="translate(427.74 4.12) rotate(35.99)" fill="#fff" stroke-width="0"/><rect x="181.39" y="658.81" width="35.88" height="6.95" transform="translate(427.23 9.28) rotate(35.99)" fill="#e6e6e6" stroke-width="0"/><rect x="193.07" y="641.91" width="47.03" height="12.22" transform="translate(422.14 -3.58) rotate(35.99)" fill="#fff" stroke-width="0"/><rect x="189.4" y="647.79" width="35.88" height="6.95" transform="translate(422.28 2.47) rotate(35.99)" fill="#e6e6e6" stroke-width="0"/><rect x="159.03" y="689.44" width="47.03" height="10.9" transform="translate(443.18 25.36) rotate(35.99)" fill="#fff" stroke-width="0"/><rect x="202.13" y="630.1" width="47.03" height="10.9" transform="translate(416.54 -11.29) rotate(35.99)" fill="#fff" stroke-width="0"/><rect x="210.53" y="618.52" width="47.03" height="10.9" transform="translate(411.34 -18.43) rotate(35.99)" fill="#fff" stroke-width="0"/><rect x="219.29" y="606.47" width="47.03" height="10.9" transform="translate(405.93 -25.88) rotate(35.99)" fill="#fff" stroke-width="0"/><rect x="227.8" y="594.74" width="47.03" height="10.9" transform="translate(400.66 -33.12) rotate(35.99)" fill="#fff" stroke-width="0"/><rect x="236.21" y="583.17" width="47.03" height="10.9" transform="translate(395.47 -40.27) rotate(35.99)" fill="#fff" stroke-width="0"/><rect x="245.11" y="570.91" width="47.03" height="10.9" transform="translate(389.96 -47.84) rotate(35.99)" fill="#fff" stroke-width="0"/><rect x="207.78" y="622.48" width="35.88" height="6.95" transform="translate(410.92 -13.16) rotate(35.99)" fill="#e6e6e6" stroke-width="0"/><rect x="215.82" y="611.41" width="35.88" height="6.95" transform="translate(405.95 -20) rotate(35.99)" fill="#e6e6e6" stroke-width="0"/><rect x="233.45" y="587.13" width="35.88" height="6.95" transform="translate(395.04 -35) rotate(35.99)" fill="#e6e6e6" stroke-width="0"/><rect x="242.24" y="575.03" width="35.88" height="6.95" transform="translate(389.61 -42.47) rotate(35.99)" fill="#e6e6e6" stroke-width="0"/><rect x="253.49" y="559.37" width="47.03" height="10.9" transform="translate(384.78 -54.97) rotate(35.99)" fill="#fff" stroke-width="0"/><rect x="262.15" y="547.45" width="47.03" height="10.9" transform="translate(379.43 -62.33) rotate(35.99)" fill="#fff" stroke-width="0"/><rect x="270.29" y="536.24" width="47.03" height="10.9" transform="translate(374.4 -69.26) rotate(35.99)" fill="#fff" stroke-width="0"/><rect x="259.13" y="551.77" width="35.88" height="6.95" transform="translate(379.17 -56.83) rotate(35.99)" fill="#e6e6e6" stroke-width="0"/><rect x="267.53" y="540.2" width="35.88" height="6.95" transform="translate(373.97 -63.98) rotate(35.99)" fill="#e6e6e6" stroke-width="0"/><rect x="278.29" y="525.22" width="47.03" height="10.9" transform="translate(369.45 -76.06) rotate(35.99)" fill="#fff" stroke-width="0"/><path d="m265.07,805.44c50.34-23.77,78.07-62.15,71.46-92.58-.62-2.84-3.63-16.7-15.92-25.87-32.47-24.23-80.56,20.88-111.46,1.33-19.77-12.51-25.92-47.34-19.6-72.93,16.44-66.68,116.84-68.37,126.21-118.79,3.73-20.07-6.18-52.09-75.2-101.75" fill="none" stroke="#fff" stroke-miterlimit="10"/><path d="m256.67,805.44c50.34-23.77,78.07-62.15,71.46-92.58-.62-2.84-3.63-16.7-15.92-25.87-32.47-24.23-80.56,20.88-111.46,1.33-19.77-12.51-25.92-47.34-19.6-72.93,16.44-66.68,116.84-68.37,126.21-118.79,3.73-20.07-6.18-52.09-75.2-101.75" fill="none" stroke="#fff" stroke-miterlimit="10"/><path d="m249.08,807.49c50.34-23.77,78.07-62.15,71.46-92.58-.62-2.84-3.63-16.7-15.92-25.87-32.47-24.23-80.56,20.88-111.46,1.33-19.77-12.51-25.92-47.34-19.6-72.93,16.44-66.68,116.84-68.37,126.21-118.79,3.73-20.07-6.18-52.09-75.2-101.75" fill="none" stroke="#fff" stroke-miterlimit="10"/></svg>