<?xml version="1.0" encoding="UTF-8"?><svg id="Layer_1" xmlns="http://www.w3.org/2000/svg" viewBox="0 0 661.67 763.72"><path d="m111.98,295.78c0-3.29.07-6.57.23-9.83,5.18-114.46,100.52-205.68,217.37-205.68s212.18,91.22,217.36,205.68c.16,3.26.23,6.54.23,9.83" fill="none" stroke="#fff" stroke-miterlimit="10"/><polyline points="112.21 285.95 111.98 285.95 111.98 295.78 111.98 641.64 117.41 641.64 117.41 682.23 119.8 682.23 119.8 616.22 125.23 616.22 125.23 682.23 127.6 682.23 127.6 643.16 133.03 643.16 133.03 682.23 135.21 682.23 135.21 656.78 140.65 656.78 140.65 682.23 143.02 682.23 143.02 649.22 148.45 649.22 148.45 682.23 151.05 682.23 151.05 639.62 156.48 639.62 156.48 682.23 158.85 682.23 158.85 624.76 164.29 624.76 164.29 682.23 166.44 682.23 166.44 592.11 171.87 592.11 171.87 682.23 174.24 682.23 174.24 629.74 179.67 629.74 179.67 682.23 182.28 682.23 182.28 653.49 187.71 653.49 187.71 682.23 190.08 682.23 190.08 635.35 195.51 635.35 195.51 682.23 198.01 682.23 198.01 660.93 203.44 660.93 203.44 682.23 205.82 682.23 205.82 650.59 211.25 650.59 211.25 682.23 213.63 682.23 213.63 666.41 219.06 666.41 219.06 682.23 221.24 682.23 221.24 653.49 226.67 653.49 226.67 682.23 229.04 682.23 229.04 639.62 234.48 639.62 234.48 682.23 237.08 682.23 237.08 622.61 242.51 622.61 242.51 682.23 244.88 682.23 244.88 648.87 250.31 648.87 250.31 682.23 252.46 682.23 252.46 659.89 257.89 659.89 257.89 682.23 260.27 682.23 260.27 669.12 265.7 669.12 265.7 682.23 268.3 682.23 268.3 655.98 273.73 655.98 273.73 682.23 276.1 682.23 276.1 643.38 281.53 643.38 281.53 682.23 283.85 682.23 283.85 652.42 289.28 652.42 289.28 682.23 291.66 682.23 291.66 647.21 297.09 647.21 297.09 682.23 299.46 682.23 299.46 659.89 304.89 659.89 304.89 682.23 307.08 682.23 307.08 664.72 312.51 664.72 312.51 682.23 314.88 682.23 314.88 655.98 320.31 655.98 320.31 682.23 322.91 682.23 322.91 639.62 328.34 639.62 328.34 682.23 330.72 682.23 330.72 644.51 336.15 644.51 336.15 682.23 338.3 682.23 338.3 659.89 343.73 659.89 343.73 682.23 346.1 682.23 346.1 648.6 351.53 648.6 351.53 682.23 354.13 682.23 354.13 655.98 359.57 655.98 359.57 682.23 361.94 682.23 361.94 635.35 367.37 635.35 367.37 682.23 369.76 682.23 369.76 642.02 375.19 642.02 375.19 682.23 377.56 682.23 377.56 648.6 383 648.6 383 682.23 385.17 682.23 385.17 635.35 390.6 635.35 390.6 682.23 392.98 682.23 392.98 626.22 398.41 626.22 398.41 682.23 401.01 682.23 401.01 597 406.44 597 406.44 682.23 408.81 682.23 408.81 574.82 414.25 574.82 414.25 682.23 416.4 682.23 416.4 612.19 421.83 612.19 421.83 682.23 424.2 682.23 424.2 624.03 429.64 624.03 429.64 682.23 432.24 682.23 432.24 639.62 437.67 639.62 437.67 682.23 440.04 682.23 440.04 635.35 445.47 635.35 445.47 682.23 448.06 682.23 448.06 653.13 453.49 653.13 453.49 682.23 455.87 682.23 455.87 663.37 461.3 663.37 461.3 682.23 463.48 682.23 463.48 659.89 468.91 659.89 468.91 682.23 471.28 682.23 471.28 665.41 476.71 665.41 476.71 682.23 479.31 682.23 479.31 647.21 484.75 647.21 484.75 682.23 487.12 682.23 487.12 635.35 492.55 635.35 492.55 682.23 494.7 682.23 494.7 612.19 500.14 612.19 500.14 682.23 502.51 682.23 502.51 622.65 507.94 622.65 507.94 682.23 510.54 682.23 510.54 644.51 515.97 644.51 515.97 682.23 518.35 682.23 518.35 660.93 523.78 660.93 523.78 682.23 526.35 682.23 526.35 644.51 531.78 644.51 531.78 682.23 534.15 682.23 534.15 635.35 539.58 635.35 539.58 682.23 541.74 682.23 541.74 651.03 547.17 651.03 547.17 295.78 547.17 285.95 546.94 285.95" fill="none" stroke="#fff" stroke-miterlimit="10"/><path d="m593.09,712.47H68.86v-406.16c.58-153.67,124.54-277.22,268.93-273.37,139.42,3.72,254.83,125.07,255.29,273.37v406.16Z" fill="none" stroke="#fff" stroke-miterlimit="10"/><path d="m604.76,722.35H57.18v-417.41C57.79,147.02,187.27,20.04,338.1,24c145.63,3.83,266.18,128.54,266.66,280.94v417.41Z" fill="none" stroke="#fff" stroke-miterlimit="10"/><path d="m243.24,195.19c4.31-2.77,12.33-6.97,22.44-6.99,1.99,0,6.52-.02,11.96,1.65,4.78,1.48,5.74,2.85,11.9,4.78,3.9,1.22,6.8,2.12,10.48,1.91,4.29-.24,7.29-1.8,9.41-2.81,2.79-1.33,17.51-8.32,31.68-6.67,4.67.54,9.17,2.02,11.88,2.87,7.95,2.57,8.94,4.29,13.7,4.63,4.16.32,7.37-.69,13.35-2.53,5.89-1.82,7.29-3.15,12.3-3.94,1.31-.21,4.8-.73,8.85-.28,10.25,1.14,17.86,7.82,17.49,8.51-.3.56-5.77-3.3-15.39-4.29-1.97-.19-5.98-.58-11.04.28-5.44.92-6.43,2.34-15.11,4.84-4.84,1.41-7.29,2.1-9.84,2.1-4.46,0-6.11-1.41-13.35-3.94-7.14-2.49-11.19-3.88-16.74-4.12-4.95-.21-9.3.58-11.96,1.22-.94.24-1.84.49-2.12.58-2.32.66-5.44,1.71-9.02,3.37-2.47,1.14-2.64,1.39-5.14,2.47-1.22.51-2.96,1.22-5.08,1.61-2.23.41-3.97.36-4.95.34-11.04-.28-17.62-7.42-30.38-8.21-1.84-.11-6.02-.24-11,1.2-4.18,1.22-7.89,3.24-7.72,3.75.17.49,5.49-2.1,13.25-1.89,3.22.09,5.77.62,6.88.9,2.21.51,3.79,1.14,7.14,2.55,8,3.37,7.59,3.52,10.59,4.61,3.58,1.29,6.82,2.47,11.08,2.57,3.84.09,6.65-.71,9.86-1.67,7.82-2.34,8.38-4.54,16.01-7.01,3.19-1.03,6.86-2.19,11.73-2.14,5.32.04,9.41,1.48,12.73,2.66,6.62,2.32,7.57,3.56,12.99,5.14,4.2,1.22,7.67.54,8.53.47,5.89-.47,7.61-2.27,15.39-4.63,5.25-1.59,9.5-2.87,14.79-2.7,5.59.17,10.05,1.91,12.88,3.28" fill="none" stroke="#6479ec" stroke-linecap="round" stroke-miterlimit="10" stroke-width=".6"/><path d="m266.9,183.36c10.59-27.18,37.02-45.04,66.05-44.69,28.53.34,54.19,18.2,64.5,44.97" fill="none" stroke="#6479ec" stroke-linecap="round" stroke-miterlimit="10" stroke-width=".75"/><text transform="translate(39.87 730.04) rotate(-90)" fill="#fff" font-family="FeneonDense-144, &apos;Feneon Dense&apos;" font-size="18"><tspan x="0" y="0">ROCK</tspan></text><text transform="translate(39.34 660.14) rotate(-90)" fill="#fff" font-family="FeneonDense-144, &apos;Feneon Dense&apos;" font-size="18"><tspan x="0" y="0" xml:space="preserve"> SOUL</tspan></text><text transform="translate(39.21 533.65) rotate(-90)" fill="#fff" font-family="FeneonDense-144, &apos;Feneon Dense&apos;" font-size="18"><tspan x="0" y="0">ELECTRONIC</tspan></text><text transform="translate(38.42 390.15) rotate(-90)" fill="#fff" font-family="FeneonDense-144, &apos;Feneon Dense&apos;" font-size="18"><tspan x="0" y="0">POP</tspan></text><text transform="translate(622.17 620.62) rotate(90)" fill="#fff" font-family="FeneonDense-144, &apos;Feneon Dense&apos;" font-size="18"><tspan x="0" y="0">CLASSICAL</tspan></text><text transform="translate(623.71 557.5) rotate(90)" fill="#fff" font-family="FeneonDense-144, &apos;Feneon Dense&apos;" font-size="18"><tspan x="0" y="0" letter-spacing="-.03em">J</tspan><tspan x="9.28" y="0">AZZ</tspan></text><text transform="translate(623.71 461.5) rotate(90)" fill="#fff" font-family="FeneonDense-144, &apos;Feneon Dense&apos;" font-size="18"><tspan x="0" y="0">HIP HOP</tspan></text><text transform="translate(623.37 364.29) rotate(90)" fill="#fff" font-family="FeneonDense-144, &apos;Feneon Dense&apos;" font-size="18"><tspan x="0" y="0">REGGAE</tspan></text><text transform="translate(39.76 338.3) rotate(-90)" fill="#fff" font-family="FeneonDense-144, &apos;Feneon Dense&apos;" font-size="18"><tspan x="0" y="0">FUNK</tspan></text><text transform="translate(624.6 284.04) rotate(90)" fill="#fff" font-family="FeneonDense-144, &apos;Feneon Dense&apos;" font-size="18"><tspan x="0" y="0">ME</tspan><tspan x="30.05" y="0" letter-spacing="-.05em">T</tspan><tspan x="42.13" y="0">AL</tspan></text><text transform="translate(39.22 588.02) rotate(-90)" fill="#fff" font-family="FeneonDense-144, &apos;Feneon Dense&apos;" font-size="18"><tspan x="0" y="0">RAP</tspan></text><g opacity=".92"><path d="m206.46,107.93c-.09-.13-.09-.25.02-.35,1.17-1.17,1.07-3.21-.29-5.22-2.44-3.58-4.89-7.16-7.33-10.74-.08-.12-.06-.29.05-.37.12-.08.29-.04.37.08,2.44,3.59,4.87,7.17,7.31,10.76,1.13,1.67,1.46,3.39.98,4.68-.03.05-.06.11-.09.16.01,0,.02.01.03.02.04-.04.09-.09.13-.13.86-.59,1.72-1.18,2.58-1.76.06-.03.11-.05.17-.08,0-.01,0-.02,0-.03-.07.01-.13.02-.2.04-.62.03-1.22-.11-1.68-.42-.03-.02-.05-.05-.08-.09-.08-.12-.07-.28.04-.36.08-.06.2-.04.27.01.67.44,1.67.48,2.61.12.14-.05.25-.01.33.13.09.17.08.28-.05.36-1.61,1.07-3.21,2.16-4.8,3.27-.12.08-.23.07-.36-.08Zm9.21-6.03c-5.9-4.39-11.99-8.6-18.28-12.62-1.55-.99-3.22-.64-3.73-.28-.12.08-.27.05-.36-.07-.08-.12-.07-.29.05-.37.58-.41,2.56-.84,4.3.27,6.15,3.96,12.12,8.1,17.91,12.42.04.05.09.11.13.16,0,0,.02-.01.02-.02-.03-.06-.06-.13-.09-.19-.05-.31-.11-.62-.16-.93-6.17-4.63-12.57-9.06-19.16-13.28-.03-.02-.06-.06-.08-.08-.08-.12-.06-.29.06-.37.38-.26.77-.52,1.15-.78.13-.09.25-.09.37,0,5.84,3.82,11.52,7.81,17.03,11.96.05.05.09.11.14.16,0,0,.02,0,.02-.01-.03-.06-.06-.13-.09-.19-.08-.32-.16-.64-.23-.95-5.19-3.91-10.52-7.69-16.01-11.32-.03-.02-.06-.06-.08-.09-.08-.12-.06-.29.06-.37.39-.26.77-.51,1.16-.76.13-.09.25-.08.37.01,4.76,3.23,9.41,6.56,13.94,10-1.21-5.48-2.3-11.01-3.27-16.58-.02-.12.03-.24.12-.29.12-.07.3-.02.37.1,3.46,6.02,6.92,12.03,10.38,18.05.41.71.38,1.55-.02,2.28-.04.05-.08.11-.12.16,0,0,.02.01.03.02.05-.04.1-.08.14-.12.53-.32,1.06-.63,1.59-.94-3.78-6.61-7.55-13.23-11.33-19.84-.09-.15-.07-.28.08-.36.38-.22.76-.43,1.14-.65.15-.08.28-.05.37.11,3.72,6.64,7.45,13.29,11.17,19.93.2-.11.41-.23.62-.34-3.7-6.66-7.4-13.31-11.11-19.97-.09-.15-.07-.28.08-.36,1.17-.65,2.35-1.29,3.53-1.92.14-.07.26-.03.36.12.08.16.06.28-.08.37-1.22.89-1.71,1.99-1.28,2.78,2.99,5.47,5.97,10.94,8.96,16.4.52.95,1.61,1.27,2.77.83.1-.05.24,0,.31.13.07.13.02.28-.09.34,0,0-.02,0-.03.01-1.37.53-2.72.12-3.38-1.08-3-5.46-6-10.92-9-16.38-.36-.65-.29-1.42.18-2.16.05-.06.09-.11.14-.17,0,0-.02-.01-.03-.02-.05.04-.11.08-.16.12-.58.32-1.15.64-1.73.96,3.69,6.67,7.38,13.34,11.07,20.01.09.16.05.27-.08.34-.34.19-.68.38-1.02.57-.14.08-.24.04-.32-.11-3.74-6.64-7.48-13.28-11.22-19.92-.23.13-.46.26-.69.39,3.76,6.63,7.53,13.26,11.29,19.88.09.15.05.27-.08.34-1.06.6-2.11,1.21-3.16,1.83-.12.07-.23.05-.34-.1-.09-.15-.08-.27.05-.36,1.07-.88,1.46-2.01.96-2.89-3.21-5.56-6.42-11.13-9.63-16.69-.03-.07-.07-.14-.1-.2,0,0,0,0-.01,0,.02.07.03.14.05.21.94,5.34,2,10.65,3.17,15.91.06.23-.08.31-.27.17-4.71-3.59-9.55-7.06-14.51-10.42-.24.16-.48.32-.72.47,5.37,3.58,10.61,7.3,15.69,11.16.1.07.17.16.2.29.13.62.26,1.24.4,1.86.06.23-.07.33-.26.18-5.71-4.3-11.6-8.44-17.67-12.4-.24.16-.48.32-.72.48,6.48,4.18,12.77,8.56,18.84,13.13.12.08.17.16.19.3.08.46.15.93.23,1.39.04.2-.05.26-.17.34-.11.07-.21.07-.33-.02Z" stroke-width="0"/><path d="m229.74,85.23c-2-3.96-3.99-7.91-5.99-11.87-.46-.91-1.72-1.23-3.13-.66-.16.06-.29.02-.35-.14-.07-.16-.03-.29.11-.36,1.19-.62,2.39-1.23,3.59-1.82.15-.08.28-.03.36.13,2.26,4.56,4.52,9.13,6.78,13.69,1.34,2.7,4.07,3.89,7.09,3.36.06-.01.12-.02.19-.03,0,0,0-.01,0-.02-.06,0-.13-.01-.19-.02-3.01-.4-5.45-1.64-6.31-3.39-2.28-4.65-4.57-9.3-6.85-13.94-.08-.16-.05-.28.1-.36.39-.19.77-.38,1.16-.56.15-.07.28-.03.36.13,2.21,4.6,4.43,9.19,6.64,13.79.4.83,1.13,1.48,1.96,1.79.06.03.12.06.19.09,0,0,0-.01,0-.02-.05-.05-.11-.09-.16-.14-.52-.59-1.03-1.43-1.46-2.34-1.82-3.81-3.64-7.63-5.47-11.44-.59-1.23-.08-2.68,1.33-3.46.2-.11.33,0,.38.11.06.13,0,.26-.1.33-1.16.73-1.61,1.83-1.15,2.8,1.81,3.82,3.63,7.64,5.44,11.46.54,1.14,1.26,2.15,1.81,2.67.17.15.14.27.11.39-.04.14-.13.22-.27.2-1.24-.22-2.45-1.04-3.04-2.24-2.19-4.51-4.37-9.03-6.56-13.54-.23.11-.46.23-.7.34,2.23,4.58,4.47,9.15,6.7,13.73.88,1.8,3.75,3.09,7.18,3.23.13.01.27.14.28.28.02.17-.02.26-.17.31-3.7,1.27-7.26.02-8.93-3.29-2.23-4.48-4.46-8.96-6.69-13.44-.61.3-1.21.6-1.82.9-.06.02-.13.04-.19.06,0,.01,0,.02,0,.04.07,0,.14-.01.22-.02.91.04,1.65.46,2.02,1.2,1.99,3.96,3.98,7.92,5.96,11.88,1.97,3.87,6.61,5,11.09,2.97,4.21-1.9,5.61-5.93,3.64-10.79-1.33-3.24-2.67-6.48-4-9.72-.64-1.56-.53-3.08.29-4.19.05-.05.09-.1.14-.14,0,0-.02-.02-.03-.02-.06.03-.12.07-.17.1-1.1.44-2.2.9-3.3,1.36-.07.02-.13.03-.2.05,0,.01,0,.02,0,.04.07,0,.13,0,.2,0,.73.11,1.37.46,1.85.9.03.02.06.06.07.09.05.13-.02.29-.14.34-.1.04-.19.01-.27-.06-.74-.67-1.87-.98-2.98-.72-.04.02-.08.03-.11.05-.13.05-.27,0-.33-.14-.06-.13,0-.29.12-.35,2.11-.9,4.23-1.78,6.35-2.62.14-.06.28,0,.35.17.06.15.02.25-.13.34-1.51.96-2.04,2.7-1.25,4.6,1.33,3.24,2.65,6.48,3.98,9.72,2.07,5.15.57,9.47-3.86,11.47-4.71,2.13-9.62.88-11.74-3.25Z" stroke-width="0"/><path d="m252.79,78.26c-.04-.06-.08-.12-.13-.18,0,0,0,.01,0,.02.03.06.06.13.09.19.42,1.13.85,2.26,1.27,3.39.02.07.03.14.05.21,0,0,.01,0,.02,0,0-.07,0-.14,0-.21.06-.23.15-.49.25-.73.02-.06.06-.11.12-.13.12-.04.27.04.32.17.03.08.01.15-.01.21-.2.47-.31.89-.34,1.3-.03.2-.15.23-.27.24-.14.02-.23-.05-.28-.2-.87-2.3-1.74-4.6-2.61-6.9-.06-.15-.02-.27.12-.32.15-.06.25,0,.32.16,1.72,4.25,5.4,6.03,9.37,4.68,3.8-1.28,5.72-4.72,4.59-8.49-1.21-4.03-5.03-4.68-8.6-5.16-2.48-.33-4.86-.61-5.94-2.15-.04-.06-.08-.12-.11-.18,0,0,0,0-.01,0,.02.07.04.13.06.2.24,2.26,3.27,2.52,5.87,2.87,3.32.44,7.06,1.06,8.1,4.51.67,2.21.03,4.71-1.42,5.78-.14.11-.26,0-.34-.09-.1-.12-.11-.24-.03-.36.63-1.08.82-3.15.37-4.61-.81-2.6-3.73-3.06-6.8-3.44-2.97-.37-6.1-.66-7.08-3.31-.36-.98-.38-2.2-.07-3.3.02-.06.04-.13.06-.19,0,0-.01,0-.02-.01-.03.06-.07.12-.1.17-.72,1.17-.89,2.58-.42,3.84,1.01,2.7,4.25,3.04,7.44,3.49,2.88.39,5.72.86,6.44,3.15.17.55.21,1.22.13,1.95-.02.16-.1.24-.25.23-.18,0-.25-.05-.31-.22-.83-2.54-3.52-3-6.54-3.4-3.35-.46-7.07-.84-8.51-4.6-1.35-3.51.55-7.12,4.67-8.54,3.27-1.13,6.25-.32,8.04,1.91.04.06.08.12.12.18,0,0,0-.01,0-.02-.03-.07-.05-.13-.08-.2-.31-.98-.61-1.97-.92-2.95,0-.07-.01-.14-.02-.21,0,0,0,0-.01,0-.02.06-.05.13-.07.19-.14.21-.29.43-.5.68-.03.04-.08.06-.12.07-.13.04-.27-.03-.31-.17-.03-.09-.01-.2.05-.25.31-.37.52-.67.67-.97.07-.14.15-.2.29-.19.2.02.29.06.34.23.61,1.98,1.22,3.96,1.83,5.94.05.17,0,.29-.16.34-.16.05-.26-.02-.32-.17-1.24-3.64-4.71-5.27-8.68-3.91-3.85,1.33-5.62,4.63-4.39,7.87,1.3,3.43,4.72,3.79,8.07,4.26,2.72.35,5.41.79,6.6,2.95.03.07.05.13.08.2,0,0,0,0,.01,0,0-.07-.02-.14-.02-.21-.04-.31-.08-.58-.16-.83-.62-1.97-3.16-2.38-6.03-2.77-3.17-.45-6.74-.82-7.87-3.84-.72-1.91-.12-4.11,1.54-5.52.13-.1.24-.09.36.02.13.14.16.25.06.4-.78,1.22-.96,2.95-.49,4.24.86,2.33,3.66,2.59,6.64,2.96,3.08.38,6.32.87,7.23,3.82.36,1.15.34,2.68.02,3.88-.02.06-.04.12-.06.19,0,0,.01,0,.02.01.03-.06.06-.11.09-.17.68-1.14.91-2.83.44-4.34-.95-3.11-4.38-3.68-7.68-4.13-2.75-.37-5.44-.66-6.18-2.67-.17-.47-.21-.99-.12-1.57.04-.2.17-.23.32-.23.15.01.23.06.27.16.68,1.88,3.07,2.15,5.91,2.53,3.59.46,7.72,1.16,9.02,5.54,1.2,4.07-.84,7.79-4.87,9.15-3.28,1.11-6.38.17-8.45-2.43Z" stroke-width="0"/><path d="m270.81,77.2c-.04-.14,0-.27.11-.3,1.12-.49,1.68-1.47,1.4-2.52-1.65-6.01-3.3-12.02-4.95-18.02-.24-.87-1.35-1.32-2.82-1.12-.17.03-.27-.04-.31-.21-.04-.17.03-.29.17-.33,1.26-.36,2.53-.71,3.79-1.05.16-.04.28.03.32.2,1.96,7.36,3.93,14.72,5.89,22.08.22-.06.44-.12.67-.18-1.94-7.37-3.88-14.73-5.82-22.1-.04-.17,0-.28.17-.33.41-.11.83-.22,1.24-.32.16-.04.28.03.32.2,1.88,7.38,3.77,14.76,5.65,22.14.58-.14,1.16-.28,1.74-.42.06,0,.12,0,.18-.01,0-.01,0-.02,0-.03-.06-.01-.13-.02-.19-.04-.78-.25-1.36-.84-1.56-1.64-1.52-6.04-3.04-12.08-4.57-18.13-.31-1.22.49-2.4,2.05-2.97.13-.03.28.07.32.21.03.14-.04.28-.16.3-1.28.47-1.95,1.41-1.72,2.34,1.51,6.05,3.02,12.09,4.53,18.14.25.99,1.28,1.54,2.63,1.43.15-.02.24.06.28.23.03.18-.03.27-.17.3-1.15.27-2.3.56-3.45.85-.15.04-.23-.02-.28-.2-1.9-7.38-3.8-14.76-5.7-22.14-.25.06-.5.13-.75.19,1.93,7.37,3.85,14.75,5.78,22.12.04.17-.01.27-.16.31-.37.1-.74.19-1.1.29-.14.04-.23-.02-.28-.19-1.98-7.36-3.96-14.72-5.94-22.08-.63.16-1.26.33-1.88.5-.07,0-.13.01-.2.02,0,.01,0,.02,0,.04.07,0,.14.02.21.02.83.2,1.42.71,1.62,1.43,1.64,6.01,3.28,12.02,4.91,18.03.36,1.32-.31,2.55-1.67,3.12-.12.03-.24-.05-.28-.19Z" stroke-width="0"/><path d="m285.75,62.33c-.49-2.45-.64-4.92-.36-7.22.01-.07.02-.15.03-.22,0,0,0,0-.01,0-.02.06-.05.13-.07.19-.66,1.56-1.03,4.51-.43,7.45.69,3.35,2.8,7.65,4.98,9.55.12.11.14.22.08.36,0,.01,0,.02,0,.03-.06.14-.16.19-.3.12-2.87-1.46-5.7-5.59-6.6-9.93-.79-3.69-.12-7.56,1.76-10.16.04-.06.08-.11.12-.17,0,0-.01,0-.02-.01-.05.04-.11.09-.16.13-2.47,2.07-3.5,6.03-2.57,10.28.79,3.65,2.95,7.44,5.07,9.12.13.09.15.2.11.36,0,0,0,.01,0,.02-.05.16-.14.21-.27.17-2.97-.93-5.62-4.57-6.71-9.36-1.65-7.12,1.55-12.93,8.02-14.07,4.43-.78,8.15,1.15,9.72,3.6.03.07.07.13.1.2,0,0,0-.01.01-.02-.01-.07-.03-.14-.04-.21-.15-1.08-.29-2.15-.44-3.22,0-.07.01-.14.02-.21-.01,0-.02,0-.03,0-.03.06-.05.13-.08.19-.19.3-.46.49-.79.53-.27.04-.55-.02-.84-.16-.08-.04-.14-.11-.15-.21-.02-.14.06-.29.2-.31.05,0,.09,0,.14.03.21.1.4.14.58.11.37-.05.64-.43.74-1.08.02-.17.1-.26.25-.26.01,0,.02,0,.03,0,.15,0,.25.08.28.26.28,2.07.56,4.13.83,6.2.02.18-.05.28-.21.3-.16.02-.25-.06-.28-.22-.58-2.99-4.62-5.93-9.94-5-6.19,1.09-9.21,6.62-7.65,13.44.87,3.92,2.86,7.04,5.14,8.42.06.04.11.08.17.11,0,0,0-.01,0-.02-.05-.05-.09-.09-.14-.14-1.87-1.98-3.6-5.28-4.3-8.48-1.14-5.16.52-9.97,4.16-11.7.14-.06.24-.01.33.12,0,0,.01.02.02.03.07.15.07.27-.05.37-2.49,2.37-3.52,6.78-2.66,10.91.68,3.38,2.6,6.65,4.73,8.51.05.04.1.09.15.13,0,0,0-.01.01-.02-.04-.05-.09-.1-.13-.16-1.76-2.27-3.3-5.68-3.86-8.41-.77-3.68.01-7.57,1.03-8.75.1-.1.22-.11.34-.03.01,0,.02.02.04.03.12.08.17.18.14.33-.41,2.54-.31,5.28.23,8.03,1.3,6.46,4.4,10.22,7.86,9.64,3.36-.57,6.22-4.91,6.05-7.84,0-.16.05-.27.2-.29.15-.02.25.06.27.22.29,2.2.58,4.4.88,6.6.02.18-.05.28-.18.32,0,0-.02,0-.03,0-.13.03-.23-.03-.29-.19-.25-.6-.57-.9-.92-.85-.15.02-.3.11-.46.26-.04.04-.08.04-.12.05-.12.02-.23-.08-.25-.22-.01-.1.02-.18.08-.24.22-.21.45-.34.69-.37.3-.04.59.06.83.31.04.05.08.11.12.16,0,0,.02,0,.03,0-.02-.07-.05-.13-.07-.2-.16-1.22-.33-2.44-.49-3.66,0-.07,0-.14-.01-.21,0,0-.01,0-.02-.01,0,.07-.02.14-.03.22-.8,2.87-3.32,6.01-6.19,6.49-3.71.63-7.04-3.34-8.42-10.09Z" stroke-width="0"/><path d="m310.58,69.81c-.01-.14.06-.26.17-.27,1.18-.27,1.91-1.13,1.83-2.21-.49-6.21-.99-12.42-1.48-18.63-.07-.9-1.07-1.55-2.54-1.63-.17,0-.25-.09-.27-.27,0-.18.08-.28.23-.3,1.3-.12,2.6-.22,3.9-.32.17-.01.26.08.28.25.55,7.6,1.09,15.19,1.64,22.79.23-.02.45-.03.68-.05-.52-7.6-1.04-15.2-1.57-22.79-.01-.18.06-.28.22-.29.42-.03.85-.06,1.27-.08.17-.01.26.08.27.26.47,7.6.93,15.2,1.4,22.81.59-.03,1.18-.06,1.78-.09.06,0,.12.02.18.02,0-.01,0-.02.01-.03-.06-.02-.12-.05-.18-.07-.72-.4-1.17-1.08-1.22-1.9-.4-6.93-.8-13.86-1.21-20.78-.01-.18.06-.28.23-.29,3.15-.18,6.31-.3,9.47-.35.14,0,.23.08.28.22.46,1.36.9,2.72,1.34,4.08.05.16,0,.27-.15.34,0,0,0,.01-.01.02-.15.07-.25.02-.33-.13-.5-.85-1.58-1.91-2.78-2.7-.06-.05-.11-.13-.11-.22,0-.14.1-.28.23-.28.05,0,.11.03.14.05.76.51,1.5,1.13,2.04,1.75.04.05.08.11.12.16.01,0,.02-.01.03-.02-.03-.06-.06-.13-.09-.19-.28-.84-.56-1.69-.85-2.53-3.02.05-6.03.16-9.04.33.38,6.84.77,13.69,1.15,20.53.06,1.01.97,1.75,2.3,1.9.15,0,.22.1.23.28,0,.18-.08.26-.22.27-1.18.05-2.35.12-3.53.19-.15,0-.22-.07-.23-.24-.48-7.61-.96-15.21-1.45-22.82-.26.02-.51.03-.77.05.51,7.6,1.01,15.21,1.52,22.81.01.18-.06.26-.21.27-.38.03-.75.05-1.13.08-.15.01-.22-.06-.24-.24-.56-7.6-1.13-15.2-1.69-22.8-.64.04-1.29.09-1.93.13-.07,0-.13-.01-.2-.02,0,.01,0,.02-.01.03.07.02.14.04.2.06.77.36,1.26.97,1.31,1.71.48,6.21.96,12.42,1.44,18.64.1,1.37-.77,2.45-2.21,2.75-.12.01-.23-.09-.24-.24Zm12.43-8.26c-.24-1.49-1.03-2.85-2.05-3.54-.1-.08-.16-.17-.16-.32,0-.19.06-.28.19-.35.32-.17.68-.41.9-.65.04-.03.1-.07.16-.07.13,0,.25.12.25.27,0,.08-.04.16-.09.21-.21.22-.51.42-.8.59.62.49,1.16,1.2,1.53,2.03.02.07.04.14.06.21,0,0,0-.01.01-.02,0-.07-.01-.14-.02-.21-.06-1.86-.11-3.72-.17-5.57,0-.07,0-.14,0-.21,0,0-.01-.01-.02-.02-.02.07-.03.14-.05.21-.79,1.93-2.49,3.14-4.75,3.19-.13,0-.24-.1-.24-.25,0-.14.09-.28.22-.27,2.72-.09,4.57-1.93,4.73-4.76,0-.16.1-.26.26-.25.16,0,.25.09.26.25.09,3.15.18,6.3.27,9.45,0,.16-.08.26-.25.28-.14,0-.23-.07-.25-.23Z" stroke-width="0"/><path d="m329.85,68.96c0-.15.1-.27.22-.27,1.17-.14,1.98-.89,1.99-1.84.07-6.23.13-12.46.2-18.69.01-1.01-.93-1.82-2.38-2.03-.17-.02-.24-.11-.24-.29.01-.18.1-.27.26-.27,5.42,0,10.84.19,16.25.57.14,0,1.13.16,1.16.31.33,1.39.66,2.79.97,4.18.03.16-.02.27-.18.33,0,0-.01,0-.02.01-.15.05-.25,0-.32-.15-.42-.89-1.4-2.05-2.53-2.94-.06-.05-.1-.14-.09-.23.01-.14.12-.27.26-.26.05,0,.1.04.13.06.72.58,1.39,1.26,1.88,1.93.04.06.07.11.11.17.01,0,.02,0,.03-.01-.03-.07-.05-.13-.08-.2-.2-.87-.41-1.73-.62-2.6-5.09-.37-10.19-.58-15.29-.63-.07-.01-.13-.02-.2-.03,0,.01-.01.02-.02.03.07.03.13.05.19.08.77.46,1.21,1.17,1.2,1.99-.08,6.23-.16,12.46-.24,18.69,0,.74-.36,1.36-.94,1.78-.05.03-.11.06-.16.1,0,0,0,.01.01.02.06-.01.12-.02.18-.03.53,0,1.06,0,1.58,0,.12-7.19.23-14.37.35-21.56,0-.18.08-.27.25-.27.42,0,.83.02,1.25.02.17,0,.25.1.25.28-.17,7.18-.34,14.37-.51,21.55.23,0,.46.01.7.02.19-7.18.38-14.37.58-21.55,0-.18.08-.27.25-.27.12,0,.23,0,.35,0,.17,0,1.16.13,1.15.31-.22,6.57-.45,13.13-.67,19.7-.03,1.05.8,1.88,1.92,1.93,2.63.11,5.25.28,7.87.49.33-1.35.67-2.7,1.01-4.06.02-.07.05-.14.07-.2,0,0-.02,0-.03,0-.03.06-.07.11-.1.17-.72.94-1.75,1.86-2.94,2.59-.06.02-.11.05-.17.07,0,.01,0,.02.01.03.06,0,.12-.01.18-.02.45.03.9.05,1.35.08.12,0,.22.15.21.29-.01.14-.13.25-.25.24-.68-.05-1.37-.1-2.05-.15-.14,0-.21-.08-.24-.24,0-.01,0-.02,0-.03-.03-.16.06-.29.25-.4,1.88-1.07,3.45-2.6,4.05-3.96.07-.16.16-.21.31-.15,0,0,0,0,.01,0,.14.06.18.16.14.34-.48,1.92-.96,3.83-1.43,5.75-.03.16-.11.22-.25.21-2.67-.22-5.35-.38-8.03-.5-1.36-.06-2.39-1.14-2.35-2.47.21-6.48.41-12.96.62-19.44-.25,0-.5-.02-.75-.02-.21,7.19-.41,14.38-.62,21.57,0,.18-.09.26-.24.25-.38-.01-.76-.02-1.15-.03-.15,0-.22-.09-.21-.26.15-7.19.31-14.38.46-21.57-.25,0-.5-.01-.75-.01-.13,7.19-.26,14.38-.39,21.57,0,.18-.09.26-.24.25-1.11-.02-2.22-.03-3.33-.03-.12,0-.22-.11-.22-.26Zm13.12-7.1c-.11-1.51-.77-2.94-1.72-3.71-.1-.09-.15-.19-.13-.33.02-.19.07-.27.22-.33.34-.14.71-.37.97-.56.05-.03.09-.06.15-.06.13,0,.24.14.23.29,0,.08-.05.16-.11.2-.24.18-.55.37-.85.52.58.53,1.05,1.3,1.34,2.16.01.07.03.14.04.21,0,0,0-.01.01-.02,0-.07,0-.14,0-.21.11-1.86.22-3.71.33-5.57,0-.07.02-.14.03-.21v-.02c-.04.07-.06.14-.08.21-.96,1.85-2.76,2.91-5.02,2.76-.13,0-.23-.12-.22-.27,0-.14.11-.27.24-.25,2.72.15,4.72-1.51,5.13-4.31.02-.16.12-.25.28-.23.16,0,.24.11.23.27-.2,3.15-.39,6.29-.59,9.44-.01.16-.1.25-.27.26-.14,0-.22-.09-.23-.26Z" stroke-width="0"/><path d="m352.49,65.5c-.01-.07-.02-.14-.03-.21,0,0-.01,0-.02.01,0,.07,0,.14,0,.21-.13,1.2-.25,2.4-.38,3.61-.02.07-.03.14-.05.21,0,0,0,.01.01.02.03-.06.07-.12.1-.18.16-.18.34-.37.54-.54.05-.04.1-.07.16-.06.12.01.22.15.2.3,0,.08-.06.14-.1.18-.38.33-.66.66-.88,1.01-.11.17-.23.14-.34.09-.13-.05-.18-.15-.16-.31.25-2.45.5-4.89.75-7.34.02-.16.1-.25.25-.23.15.02.22.12.21.28-.36,4.57,2.09,7.8,6.21,8.36,3.94.54,7.17-1.68,7.85-5.56.72-4.15-2.39-6.42-5.34-8.44-2.05-1.4-4.03-2.7-4.3-4.57,0-.07-.01-.14-.02-.21,0,0,0,0-.01,0-.01.07-.03.14-.04.21-.78,2.13,1.77,3.71,3.93,5.18,2.74,1.87,5.79,4.09,5.19,7.64-.39,2.27-2.06,4.23-3.82,4.55-.17.04-.23-.12-.26-.23-.03-.15.01-.26.14-.34,1.04-.69,2.13-2.46,2.37-3.97.44-2.69-1.96-4.4-4.51-6.1-2.47-1.65-5.1-3.31-4.8-6.11.12-1.04.64-2.13,1.4-2.99.05-.05.09-.1.14-.15,0,0,0-.01-.01-.02-.05.04-.11.07-.16.11-1.16.73-1.93,1.91-2.07,3.26-.3,2.87,2.41,4.62,5.04,6.43,2.37,1.63,4.69,3.32,4.31,5.69-.09.57-.36,1.18-.75,1.81-.09.13-.19.17-.33.1-.16-.09-.2-.16-.18-.34.39-2.65-1.79-4.25-4.29-5.96-2.76-1.91-5.87-3.9-5.48-7.91.36-3.75,3.63-6.13,7.91-5.57,3.39.45,5.68,2.5,6.28,5.29,0,.07.02.14.03.22,0,0,.01,0,.02-.01,0-.07.01-.14.02-.21.17-1.02.33-2.04.5-3.05.03-.07.05-.13.08-.2,0,0-.01,0-.02,0-.05.05-.1.09-.14.14-.22.13-.45.25-.75.39-.05.02-.09.02-.14.01-.14-.02-.22-.15-.2-.29.01-.1.08-.18.16-.2.44-.19.76-.37,1.03-.57.12-.09.22-.11.34-.04.17.11.23.18.2.36-.34,2.05-.67,4.09-1.01,6.14-.03.17-.13.26-.29.23-.16-.03-.22-.13-.21-.29.52-3.81-1.84-6.81-5.96-7.36-4-.52-7.02,1.65-7.36,5.09-.37,3.65,2.49,5.5,5.25,7.41,2.25,1.52,4.44,3.11,4.54,5.57,0,.07-.01.14-.02.21,0,0,0,0,.01,0,.02-.07.05-.13.07-.2.1-.29.19-.56.23-.81.32-2.04-1.75-3.54-4.12-5.16-2.61-1.81-5.59-3.73-5.26-6.94.21-2.03,1.71-3.73,3.8-4.26.15-.03.26.03.31.18.05.18.02.3-.12.39-1.23.74-2.16,2.21-2.31,3.57-.27,2.47,2.09,3.95,4.56,5.6,2.56,1.71,5.22,3.59,4.72,6.63-.19,1.19-.88,2.55-1.7,3.48-.05.05-.09.09-.14.14,0,0,0,.01.01.02.05-.04.1-.07.16-.11,1.11-.72,2.07-2.13,2.32-3.69.54-3.21-2.26-5.24-4.98-7.11-2.27-1.55-4.52-3.01-4.28-5.14.06-.5.25-.98.59-1.46.12-.16.26-.13.38-.07.13.08.18.15.16.26-.24,1.98,1.76,3.29,4.11,4.89,2.97,2,6.34,4.48,5.55,8.97-.74,4.18-4.21,6.6-8.38,6.02-3.4-.47-5.72-2.69-6.4-5.93Z" stroke-width="0"/><path d="m371.56,54.53c.73-1.74,1.47-3.48,2.22-5.21.06-.15.15-.23.3-.21.01,0,.03,0,.04,0,.15.03.22.07.29.2.17.33.51.56.92.64,1.36.27,2.72.54,4.08.83.14.03.23.18.2.32-.03.14-.17.23-.31.2-1.36-.29-2.71-.57-4.07-.83-.45-.09-.86-.33-1.12-.68-.51,1.17-1.02,2.33-1.52,3.5-.03.07-.06.13-.1.2,0,0,.01,0,.02,0,.04-.05.09-.1.13-.16.68-.63,1.57-1.18,2.55-1.6.06-.02.13-.04.2-.06,0,0,0-.01-.01-.02-.07,0-.13,0-.2,0-.26-.04-.52-.09-.77-.13-.13-.03-.22-.16-.19-.3.03-.14.15-.25.29-.22.52.1,1.04.2,1.56.31.15.03.17.13.22.29,0,.01,0,.02,0,.03.04.16-.07.27-.2.32-1.74.72-3.42,1.67-4.08,2.81-.11.19-.24.15-.35.1-.14-.07-.16-.19-.1-.35Zm1.45,18.83c.03-.14.13-.22.25-.21,1.35.1,2.41-.49,2.64-1.53,1.48-6.78,2.96-13.56,4.44-20.34.04-.17.13-.25.3-.22.42.09.83.18,1.25.28.16.04.23.15.19.32-1.68,7.43-3.36,14.86-5.04,22.29.22.05.45.1.67.15,1.7-7.42,3.4-14.85,5.11-22.27.04-.17.14-.25.3-.21.42.1.83.19,1.25.29.16.04.23.15.19.33-1.76,7.41-3.52,14.82-5.27,22.23.61.15,1.23.3,1.84.46.06.02.11.04.17.06,0,0,.01,0,.02-.01-.05-.04-.11-.07-.16-.11-.64-.62-.92-1.42-.73-2.22,1.62-6.75,3.25-13.49,4.87-20.24.04-.17.14-.25.3-.21,1.77.43,3.54.88,5.3,1.35.4.11.81.05,1.11-.17.12-.09.2-.1.35-.06.01,0,.03,0,.04.01.15.04.2.15.18.32-.08,1.89-.18,3.77-.28,5.66-.01.21-.14.26-.26.26-.16,0-.25-.07-.26-.24-.1-1.3-1.13-2.97-2.45-4.31-.11-.11-.13-.23-.06-.38.08-.18.19-.23.35-.19.51.13,1.03.27,1.54.41.13.04.22.19.18.33-.04.14-.18.22-.32.18-.25-.07-.5-.15-.76-.22-.06-.03-.12-.05-.18-.08,0,0-.01,0-.02.01.05.05.1.09.15.14.71.8,1.28,1.7,1.62,2.56.02.07.04.13.05.2,0,0,.01,0,.02,0,0-.07,0-.15,0-.22.06-1.27.11-2.54.17-3.81-.39.2-.87.23-1.31.12-1.68-.45-3.36-.87-5.04-1.28-1.62,6.66-3.23,13.32-4.85,19.98-.24.99.52,2.03,1.94,2.56.14.05.2.17.14.34-.06.17-.16.24-.29.21-1.24-.32-2.48-.62-3.73-.91-.15-.03-.19-.14-.15-.32,1.74-7.42,3.49-14.84,5.23-22.26-.25-.06-.5-.12-.75-.18-1.72,7.43-3.44,14.85-5.16,22.28-.04.17-.14.25-.29.21-.37-.09-.74-.17-1.11-.25-.15-.03-.19-.14-.15-.32,1.66-7.44,3.33-14.88,4.99-22.31-.25-.06-.5-.11-.76-.17-1.47,6.69-2.95,13.39-4.42,20.08-.3,1.34-1.59,2.29-3.18,1.96-.12-.03-.19-.17-.16-.31Z" stroke-width="0"/><path d="m389.31,77.39c.04-.14.15-.22.26-.19,1.21.18,2.21-.36,2.52-1.39,1.79-5.97,3.59-11.93,5.38-17.9.26-.86-.45-1.84-1.8-2.44-.16-.06-.2-.18-.15-.35.06-.17.18-.23.33-.19,1.26.36,2.52.74,3.78,1.13.16.05.22.17.17.34-2.25,7.28-4.49,14.56-6.74,21.83.22.07.44.14.66.2,2.27-7.27,4.54-14.54,6.81-21.81.05-.17.15-.24.31-.19.41.13.82.26,1.23.39.16.05.22.17.16.34-2.32,7.25-4.65,14.51-6.97,21.76.57.19,1.14.38,1.7.57.05.03.11.06.16.09,0,0,.02-.02.02-.03-.05-.04-.1-.09-.14-.13-.53-.63-.71-1.44-.46-2.22,1.92-5.93,3.84-11.85,5.76-17.78.39-1.2,1.7-1.77,3.33-1.43.13.04.2.21.16.34-.05.14-.19.21-.3.17-1.34-.28-2.41.15-2.71,1.07-1.93,5.92-3.87,11.85-5.8,17.77-.31.97.27,1.98,1.47,2.61.14.06.17.18.12.35-.07.16-.17.21-.31.17-1.13-.38-2.26-.75-3.39-1.11-.15-.05-.18-.14-.13-.31,2.31-7.26,4.62-14.53,6.93-21.79-.25-.08-.5-.16-.74-.23-2.29,7.27-4.57,14.54-6.86,21.81-.05.17-.16.22-.3.18-.36-.11-.73-.23-1.09-.34-.15-.04-.19-.14-.13-.31,2.23-7.29,4.47-14.58,6.7-21.86-.62-.2-1.24-.39-1.86-.58-.06-.03-.12-.06-.18-.09,0,0-.02.02-.02.03.06.04.11.09.17.13.6.61.83,1.36.62,2.07-1.81,5.96-3.61,11.93-5.42,17.89-.4,1.31-1.62,2-3.08,1.76-.12-.03-.18-.17-.14-.31Z" stroke-width="0"/><path d="m409.37,84.35c.13-7.13.03-14.31-.31-21.52-.08-1.71-.65-3.19-1.44-3.6-.1-.05-.16-.19-.12-.31.05-.15.2-.24.37-.14.94.52,1.61,2.12,1.68,4,.31,7.07.4,14.1.27,21.09-.02.07-.03.14-.05.2,0,0,.02,0,.03.01.03-.06.07-.12.1-.18.21-.24.41-.48.62-.72.13-7.71,0-15.48-.41-23.28,0-.21.11-.3.3-.24.43.16.87.31,1.3.47.13.05.19.14.2.3.31,6.97.4,13.9.28,20.8-.02.07-.04.14-.05.2,0,0,.02,0,.03.01.04-.06.07-.12.1-.18.21-.24.42-.48.63-.72.12-6.53.05-13.11-.22-19.71,0-.21.11-.3.3-.23,1.57.59,3.13,1.19,4.69,1.81.14.06.21.19.14.35-.07.16-.19.22-.35.17-1.61-.47-2.63-.34-2.9.35-.05.14-.09.31-.08.5.14,4.95.16,9.89.08,14.8-.02.07-.04.14-.05.2,0,0,.02,0,.03.01.04-.06.07-.12.11-.18,2.99-3.27,6.05-6.49,9.18-9.66.99-1.01,2.33-1.65,3.62-1.76.07,0,.14,0,.22,0,0-.01,0-.02,0-.04-.07-.02-.13-.04-.2-.05-1.39-.63-2.78-1.24-4.17-1.84-.06-.04-.11-.07-.17-.11,0,0-.02.02-.03.02.05.05.09.1.14.15.4.59.57,1.32.47,2.05.28-.25.57-.44.89-.63.07-.04.16-.05.23-.02.13.06.19.22.13.36-.03.06-.07.09-.12.12-.48.32-.88.63-1.27,1.04-.12.12-.24.18-.36.07-.01-.01-.02-.02-.04-.03-.12-.11-.15-.19-.1-.34.42-1.27.04-2.57-1.19-3.22-.15-.08-.2-.21-.11-.36.08-.16.2-.21.35-.15,2.32.98,4.63,2,6.92,3.05.14.06.2.2.12.36,0,0,0,0,0,.01-.07.15-.18.2-.33.17-1.47-.34-3.36.23-4.64,1.51-3.31,3.33-6.53,6.72-9.68,10.16-.06.08-.17.1-.26.07-.09-.04-.13-.13-.14-.23.08-5.14.04-10.3-.12-15.48,0-.28.04-.52.12-.73.21-.54.66-.87,1.33-.94.07,0,.14,0,.21,0,0-.01,0-.02,0-.04-.07-.01-.13-.03-.2-.04-.74-.28-1.48-.56-2.23-.83.24,6.46.29,12.89.16,19.29,0,.14-.05.22-.14.33-.38.41-.75.83-1.12,1.25-.06.08-.17.11-.26.07-.09-.04-.13-.12-.13-.23.13-7.08.02-14.21-.31-21.37-.25-.09-.51-.19-.76-.28.38,7.66.49,15.29.35,22.87,0,.14-.05.22-.13.33-.32.36-.64.71-.96,1.07-.14.15-.25.13-.37.08-.11-.05-.17-.14-.17-.29Z" stroke-width="0"/><path d="m417.5,87.71c.07-.15.17-.21.31-.18,1.19.2,3.45-1,5.46-2.91,2.57-2.47,5.18-4.9,7.85-7.29.2-.17.44-.52.67-.98.21-.43.39-.92.55-1.42.05-.17.15-.23.31-.21.18.02.26.09.23.28-.37,5.39-.87,10.75-1.5,16.07-.06.44-.17.84-.34,1.17-.31.58-.78.95-1.34,1.06-.06,0-.13,0-.19,0,0,0,0,.01,0,.02.06.02.12.04.18.06.67.35,1.35.7,2.02,1.06.86-6.68,1.52-13.43,1.98-20.23.02-.14.07-.24.21-.31.41-.24.83-.47,1.25-.71.08-.05.17-.06.25-.02.1.05.14.16.13.26-.51,7.35-1.25,14.65-2.24,21.86.22.12.44.25.67.37,1.06-7.58,1.85-15.25,2.39-22.99,0-.14.05-.24.18-.32.34-.25.69-.49,1.04-.74.11-.09.23-.1.35-.04.19.1.24.18.22.35-.54,7.52-1.33,14.98-2.37,22.36-.17,1.14.08,2.25.6,2.77.09.07.11.21.04.32-.07.13-.23.17-.34.1-.67-.38-.95-2.1-.79-3.2,1.01-7.25,1.79-14.57,2.32-21.96.02-.07.04-.13.07-.2,0,0,0,0-.01,0-.05.06-.09.11-.14.17-.23.16-.45.32-.68.48-.55,7.85-1.38,15.64-2.47,23.33,0,.04-.02.08-.03.11-.07.13-.22.17-.35.1-.35-.2-.7-.39-1.06-.59-.11-.06-.16-.14-.14-.3.96-7.08,1.7-14.23,2.21-21.44.02-.07.04-.13.07-.2,0,0,0,0-.01,0-.05.05-.1.11-.15.16-.23.14-.47.27-.7.41-.48,6.9-1.17,13.75-2.07,20.53,0,.03-.01.08-.03.11-.07.13-.22.17-.34.11-1.16-.63-2.32-1.24-3.48-1.85-.12-.06-.15-.19-.08-.37.07-.14.18-.2.33-.14.96.32,1.71.06,2.11-.69.13-.26.23-.59.27-.95.56-4.81,1.02-9.65,1.38-14.51.01-.07.03-.14.04-.21,0,0-.01,0-.02,0-.03.06-.05.13-.08.19-.27.58-.53.98-.79,1.19-2.67,2.39-5.29,4.82-7.86,7.28-1.62,1.55-3.41,2.63-4.76,2.94-.06,0-.13.01-.19.02,0,0,0,.01,0,.02.06.02.12.03.18.05,1.27.58,2.54,1.18,3.81,1.78.05.04.1.07.15.11,0,0,.01,0,.02,0-.04-.05-.07-.11-.11-.16-.33-.66-.39-1.51-.16-2.38-.57.44-1.05.75-1.46.93-.06.03-.13.01-.18-.01-.11-.05-.16-.2-.09-.33.03-.07.07-.13.15-.15.46-.19,1.04-.6,1.79-1.22.12-.1.24-.1.35-.01,0,0,.01.02.02.03.11.09.13.2.07.35-.59,1.41-.3,2.76.72,3.46.09.06.13.21.07.32-.06.13-.21.18-.34.12-1.99-.97-3.99-1.91-6-2.81-.16-.07-.15-.21-.1-.35Zm8.63-4.14c.06-.13.21-.2.33-.15,1.43.69,2.85,1.4,4.27,2.12.12.06.16.23.1.36-.07.13-.22.18-.34.12-1.41-.72-2.83-1.43-4.26-2.12-.12-.06-.16-.2-.1-.33Z" stroke-width="0"/><path d="m437.11,97.78c.09-.15.2-.2.34-.14,1.28.5,2.42.34,2.88-.44,3.18-5.36,6.37-10.71,9.55-16.07.55-.93.19-2.08-.92-2.92-.11-.06-.13-.21-.06-.33.07-.13.23-.18.35-.11,1.34,1,1.77,2.45,1.07,3.62-3.19,5.35-6.39,10.7-9.58,16.05-.38.64-1.07.98-1.87.97-.07,0-.13-.02-.2-.02,0,.01,0,.02,0,.03.06.02.12.04.18.07.52.3,1.04.61,1.56.91,3.93-6.53,7.85-13.05,11.78-19.58.09-.15.21-.19.36-.11.37.22.74.45,1.11.68.15.09.18.22.09.37-3.98,6.5-7.95,12.99-11.93,19.49.21.13.41.25.62.38,4-6.48,8-12.96,11.99-19.45.09-.15.21-.19.36-.1,1.23.76,2.45,1.53,3.67,2.32.13.08.16.22.08.37-.1.15-.21.19-.37.11-1.54-.74-2.88-.65-3.42.21-3.31,5.28-6.62,10.56-9.93,15.83-.59.94-.3,2,.75,2.67,2.2,1.41,4.38,2.86,6.54,4.36.99-1.06,1.98-2.11,2.98-3.17.06-.05.11-.09.17-.14,0,0-.02-.01-.02-.02-.06.03-.12.06-.17.09-1.16.47-2.62.77-4.11.79-.07,0-.13-.01-.2-.02,0,0,0,.01,0,.02.06.03.12.05.17.08.45.3.89.59,1.34.89.11.07.13.25.05.36-.08.12-.24.15-.35.07-.64-.44-1.29-.88-1.93-1.32-.12-.08-.15-.18-.1-.34,0,0,.01-.02.02-.03.05-.16.19-.22.42-.22,2.26.03,4.5-.51,5.75-1.41.14-.1.25-.1.34.02,0,0,.02.01.02.02.1.11.08.24-.02.36-1.4,1.47-2.79,2.94-4.17,4.42-.1.12-.22.14-.34.06-2.2-1.53-4.43-3.02-6.67-4.46-1.26-.81-1.62-2.15-.87-3.37,3.3-5.28,6.6-10.57,9.9-15.85.44-.7,1.23-1.04,2.22-.95.07.01.14.03.21.04,0,0,0-.01,0-.02-.06-.03-.12-.06-.18-.1-.61-.38-1.22-.75-1.83-1.13-4.02,6.48-8.03,12.96-12.05,19.43-.09.15-.21.17-.34.09-.34-.21-.67-.42-1.01-.62-.13-.08-.15-.19-.06-.34,3.97-6.51,7.93-13.02,11.9-19.53-.22-.14-.45-.27-.67-.41-3.94,6.52-7.89,13.04-11.83,19.57-.09.15-.21.18-.34.1-1.04-.63-2.08-1.25-3.13-1.85-.12-.07-.16-.18-.08-.34Z" stroke-width="0"/></g><circle cx="115.09" cy="193.6" r="2.95" fill="#fff" stroke-width="0"/><circle cx="130.82" cy="167.36" r="3.92" fill="#fff" stroke-width="0"/><circle cx="104.85" cy="222.03" r="3.92" fill="#fff" stroke-width="0"/><circle cx="145.6" cy="146.92" r="2.95" fill="#fff" stroke-width="0"/><circle cx="97.83" cy="247.47" r="2.95" fill="#fff" stroke-width="0"/><circle cx="544.07" cy="192.32" r="2.95" fill="#fff" stroke-width="0"/><circle cx="528.34" cy="166.07" r="3.92" fill="#fff" stroke-width="0"/><circle cx="554.31" cy="220.74" r="3.92" fill="#fff" stroke-width="0"/><circle cx="513.56" cy="145.63" r="2.95" fill="#fff" stroke-width="0"/><circle cx="561.33" cy="246.19" r="2.95" fill="#fff" stroke-width="0"/></svg>