<svg xmlns="http://www.w3.org/2000/svg" width="256" height="256" viewBox="0 0 100 100"><rect width="100" height="100" rx="50" fill="#5e7af5"></rect><path fill="#fff" d="M6.42 56.32L6.14 52.06L6.84 52.06Q6.97 52.92 7.35 53.60Q7.72 54.28 8.28 54.76Q8.84 55.23 9.57 55.49Q10.30 55.75 11.15 55.75L11.15 55.75Q12.56 55.75 13.38 55.08Q14.19 54.42 14.19 53.28L14.19 53.28Q14.19 52.80 14.03 52.40Q13.87 52.00 13.49 51.63Q13.11 51.26 12.48 50.90Q11.84 50.54 10.87 50.12L10.87 50.12Q9.69 49.61 8.89 49.14Q8.10 48.66 7.62 48.15Q7.15 47.63 6.95 47.05Q6.75 46.48 6.75 45.73L6.75 45.73Q6.75 44.86 7.06 44.12Q7.37 43.38 7.94 42.84Q8.51 42.30 9.29 42.00Q10.07 41.71 11.00 41.71L11.00 41.71Q11.84 41.71 12.56 41.97Q13.28 42.24 14.02 42.83L14.02 42.83L14.52 41.97L14.95 41.97L15.16 45.75L14.46 45.75Q14.00 44.20 13.14 43.44Q12.28 42.68 11.06 42.68L11.06 42.68Q9.90 42.68 9.22 43.25Q8.53 43.82 8.53 44.78L8.53 44.78Q8.53 45.24 8.68 45.61Q8.84 45.98 9.18 46.31Q9.52 46.65 10.07 46.98Q10.62 47.31 11.44 47.67L11.44 47.67Q12.85 48.30 13.78 48.84Q14.71 49.38 15.26 49.92Q15.81 50.47 16.04 51.06Q16.27 51.66 16.27 52.40L16.27 52.40Q16.27 53.35 15.89 54.15Q15.51 54.95 14.82 55.52Q14.14 56.09 13.19 56.40Q12.24 56.72 11.10 56.72L11.10 56.72Q10.01 56.72 9.15 56.41Q8.29 56.11 7.39 55.39L7.39 55.39L6.86 56.32L6.42 56.32ZM29.57 59.24L18.74 59.24L18.74 57.95L29.57 57.95L29.57 59.24ZM32.40 56.32L32.11 52.06L32.81 52.06Q32.95 52.92 33.32 53.60Q33.69 54.28 34.25 54.76Q34.81 55.23 35.54 55.49Q36.27 55.75 37.13 55.75L37.13 55.75Q38.53 55.75 39.35 55.08Q40.17 54.42 40.17 53.28L40.17 53.28Q40.17 52.80 40.01 52.40Q39.84 52.00 39.46 51.63Q39.08 51.26 38.45 50.90Q37.81 50.54 36.84 50.12L36.84 50.12Q35.66 49.61 34.87 49.14Q34.07 48.66 33.59 48.15Q33.12 47.63 32.92 47.05Q32.72 46.48 32.72 45.73L32.72 45.73Q32.72 44.86 33.03 44.12Q33.35 43.38 33.92 42.84Q34.49 42.30 35.27 42.00Q36.04 41.71 36.98 41.71L36.98 41.71Q37.81 41.71 38.53 41.97Q39.26 42.24 40.00 42.83L40.00 42.83L40.49 41.97L40.93 41.97L41.14 45.75L40.43 45.75Q39.98 44.20 39.11 43.44Q38.25 42.68 37.03 42.68L37.03 42.68Q35.87 42.68 35.19 43.25Q34.51 43.82 34.51 44.78L34.51 44.78Q34.51 45.24 34.66 45.61Q34.81 45.98 35.15 46.31Q35.49 46.65 36.04 46.98Q36.60 47.31 37.41 47.67L37.41 47.67Q38.82 48.30 39.75 48.84Q40.68 49.38 41.23 49.92Q41.78 50.47 42.01 51.06Q42.24 51.66 42.24 52.40L42.24 52.40Q42.24 53.35 41.86 54.15Q41.48 54.95 40.79 55.52Q40.11 56.09 39.16 56.40Q38.21 56.72 37.07 56.72L37.07 56.72Q35.99 56.72 35.12 56.41Q34.26 56.11 33.37 55.39L33.37 55.39L32.83 56.32L32.40 56.32ZM49.44 46.27L49.44 46.27Q50.52 46.27 51.49 46.66Q52.46 47.05 53.19 47.73Q53.92 48.41 54.35 49.35Q54.78 50.29 54.78 51.42L54.78 51.42Q54.78 52.57 54.35 53.54Q53.92 54.51 53.19 55.22Q52.46 55.92 51.49 56.32Q50.52 56.72 49.44 56.72L49.44 56.72Q48.38 56.72 47.42 56.33Q46.46 55.94 45.73 55.23Q45.01 54.53 44.59 53.55Q44.18 52.57 44.18 51.42L44.18 51.42Q44.18 50.29 44.59 49.34Q45.01 48.39 45.73 47.71Q46.46 47.03 47.42 46.65Q48.38 46.27 49.44 46.27ZM49.44 47.18L49.44 47.18Q48.74 47.18 48.16 47.48Q47.58 47.79 47.17 48.35Q46.76 48.91 46.54 49.70Q46.32 50.48 46.32 51.43L46.32 51.43Q46.32 52.42 46.54 53.22Q46.76 54.02 47.17 54.58Q47.58 55.14 48.15 55.44Q48.72 55.75 49.44 55.75L49.44 55.75Q50.16 55.75 50.75 55.44Q51.34 55.14 51.76 54.57Q52.18 54.00 52.40 53.20Q52.63 52.40 52.63 51.43L52.63 51.43Q52.63 50.48 52.40 49.71Q52.18 48.93 51.76 48.37Q51.34 47.81 50.75 47.49Q50.16 47.18 49.44 47.18ZM64.49 51.36L64.49 49.50Q64.49 48.72 64.45 48.27Q64.41 47.82 64.25 47.59Q64.09 47.35 63.78 47.26Q63.46 47.18 62.91 47.12L62.91 47.12L62.91 46.46L66.35 46.46L66.35 52.29Q66.35 53.37 66.38 54.06Q66.41 54.74 66.46 55.08L66.46 55.08Q66.50 55.33 66.59 55.47Q66.67 55.61 66.84 55.70Q67.01 55.79 67.29 55.81Q67.57 55.84 68.00 55.84L68.00 55.84L68.00 56.51L64.87 56.74L64.66 54.46L64.58 54.46Q63.86 55.63 62.92 56.17Q61.98 56.72 60.95 56.72L60.95 56.72Q60.16 56.72 59.41 56.41Q58.65 56.11 58.27 55.60L58.27 55.60Q57.95 55.18 57.81 54.44Q57.67 53.70 57.67 52.52L57.67 52.52L57.67 49.50Q57.67 48.72 57.63 48.27Q57.59 47.82 57.43 47.59Q57.27 47.35 56.95 47.26Q56.64 47.18 56.09 47.12L56.09 47.12L56.09 46.46L59.53 46.46L59.53 51.64Q59.53 53.71 60.01 54.65Q60.50 55.58 61.56 55.58L61.56 55.58Q63.23 55.58 64.16 53.39L64.16 53.39Q64.26 53.16 64.32 52.97Q64.37 52.78 64.41 52.56Q64.45 52.33 64.47 52.04Q64.49 51.76 64.49 51.36L64.49 51.36ZM72.52 51.00L72.52 53.54Q72.52 54.32 72.56 54.77Q72.60 55.22 72.76 55.45Q72.92 55.69 73.24 55.77Q73.55 55.84 74.10 55.88L74.10 55.88L74.10 56.53L69.12 56.53L69.12 55.88Q69.66 55.84 69.97 55.77Q70.28 55.69 70.45 55.46Q70.62 55.23 70.67 54.82Q70.72 54.40 70.72 53.68L70.72 53.68L70.72 51.15Q70.72 48.89 70.61 48.39L70.61 48.39Q70.55 48.15 70.46 47.99Q70.38 47.82 70.21 47.74Q70.04 47.65 69.77 47.63Q69.50 47.60 69.09 47.60L69.09 47.60L69.09 46.99L72.13 46.27L72.35 48.15L72.43 48.15Q73.15 47.25 74.12 46.76Q75.09 46.27 76.23 46.27L76.23 46.27Q77.10 46.27 77.83 46.55Q78.55 46.84 78.93 47.33L78.93 47.33Q79.25 47.77 79.38 48.46Q79.52 49.15 79.52 50.37L79.52 50.37L79.52 53.54Q79.52 54.32 79.56 54.77Q79.61 55.22 79.76 55.45Q79.92 55.69 80.23 55.77Q80.54 55.84 81.06 55.88L81.06 55.88L81.06 56.53L76.13 56.53L76.13 55.88Q76.67 55.86 76.98 55.78Q77.29 55.69 77.45 55.46Q77.62 55.23 77.66 54.81Q77.71 54.38 77.71 53.68L77.71 53.68L77.71 51.17Q77.71 50.09 77.60 49.34Q77.48 48.60 77.23 48.15Q76.97 47.69 76.55 47.49Q76.13 47.29 75.55 47.29L75.55 47.29Q74.69 47.29 73.98 47.74Q73.27 48.19 72.87 48.96L72.87 48.96Q72.77 49.15 72.70 49.33Q72.64 49.50 72.60 49.72Q72.56 49.95 72.54 50.25Q72.52 50.54 72.52 51.00L72.52 51.00ZM90.71 56.72L90.71 54.93L90.63 54.93Q89.95 55.90 89.18 56.31Q88.41 56.72 87.36 56.72L87.36 56.72Q86.28 56.72 85.38 56.33Q84.48 55.94 83.82 55.24Q83.16 54.55 82.79 53.58Q82.42 52.61 82.42 51.47L82.42 51.47Q82.42 50.35 82.79 49.39Q83.16 48.43 83.82 47.74Q84.48 47.05 85.39 46.66Q86.30 46.27 87.36 46.27L87.36 46.27Q88.28 46.27 88.99 46.57Q89.70 46.87 90.37 47.54L90.37 47.54L90.37 45.60Q90.37 44.52 90.34 43.80Q90.31 43.07 90.25 42.81L90.25 42.81Q90.16 42.39 89.72 42.22Q89.28 42.05 88.29 42.05L88.29 42.05L88.29 41.48L92.19 40.76L92.19 51.72Q92.19 53.03 92.21 53.88Q92.23 54.72 92.32 55.08L92.32 55.08Q92.38 55.31 92.47 55.46Q92.55 55.61 92.71 55.70Q92.87 55.79 93.15 55.82Q93.42 55.86 93.86 55.86L93.86 55.86L93.86 56.51L90.71 56.72ZM90.33 51.99L90.33 50.73Q90.33 49.74 90.22 49.23Q90.12 48.72 89.81 48.34L89.81 48.34Q89.38 47.77 88.70 47.47Q88.03 47.18 87.36 47.18L87.36 47.18Q86.00 47.18 85.28 48.31Q84.57 49.44 84.57 51.38L84.57 51.38Q84.57 52.38 84.75 53.20Q84.93 54.02 85.28 54.60Q85.63 55.18 86.16 55.49Q86.68 55.80 87.36 55.80L87.36 55.80Q87.71 55.80 88.06 55.73Q88.41 55.65 88.74 55.49Q89.07 55.33 89.36 55.11Q89.64 54.89 89.83 54.61L89.83 54.61Q90.10 54.19 90.21 53.60Q90.33 53.01 90.33 51.99L90.33 51.99Z"></path></svg>